<svg width="16" height="1080" viewBox="0 0 16 1080" fill="none" xmlns="http://www.w3.org/2000/svg">
<rect x="6.54004" y="591.079" width="2.14909" height="9.02227" transform="rotate(-90 6.54004 591.079)" fill="#F3D7AD"/>
<rect x="1" y="576.035" width="2.14909" height="14.5623" transform="rotate(-90 1 576.035)" fill="#F3D7AD"/>
<rect x="1" y="553.589" width="2.14909" height="11.2383" transform="rotate(-90 1 553.589)" fill="#F3D7AD"/>
<rect x="14.1377" y="573.886" width="1.42457" height="17.1927" fill="#F3D7AD"/>
<rect x="6.54004" y="583.438" width="1.42457" height="7.64122" fill="#F3D7AD"/>
<rect x="10.8137" y="551.44" width="1.42457" height="10.0291" fill="#F3D7AD"/>
<rect x="1" y="551.44" width="1.42457" height="24.5952" fill="#F3D7AD"/>
<rect x="6.54004" y="1007.8" width="2.14909" height="9.02227" transform="rotate(-90 6.54004 1007.8)" fill="#F3D7AD"/>
<rect x="1" y="992.76" width="2.14909" height="14.5623" transform="rotate(-90 1 992.76)" fill="#F3D7AD"/>
<rect x="1" y="970.314" width="2.14909" height="11.2383" transform="rotate(-90 1 970.314)" fill="#F3D7AD"/>
<rect x="14.1377" y="990.611" width="1.42457" height="17.1927" fill="#F3D7AD"/>
<rect x="6.54004" y="1000.16" width="1.42457" height="7.64122" fill="#F3D7AD"/>
<rect x="10.8137" y="968.166" width="1.42457" height="10.0291" fill="#F3D7AD"/>
<rect x="1" y="968.166" width="1.42457" height="24.5952" fill="#F3D7AD"/>
<rect x="6.54004" y="382.839" width="2.14909" height="9.02227" transform="rotate(-90 6.54004 382.839)" fill="#F3D7AD"/>
<rect x="1" y="367.796" width="2.14909" height="14.5623" transform="rotate(-90 1 367.796)" fill="#F3D7AD"/>
<rect x="1" y="345.35" width="2.14909" height="11.2383" transform="rotate(-90 1 345.35)" fill="#F3D7AD"/>
<rect x="14.1377" y="365.647" width="1.42457" height="17.1927" fill="#F3D7AD"/>
<rect x="6.54004" y="375.198" width="1.42457" height="7.64122" fill="#F3D7AD"/>
<rect x="10.8137" y="343.201" width="1.42457" height="10.0291" fill="#F3D7AD"/>
<rect x="1" y="343.201" width="1.42457" height="24.5952" fill="#F3D7AD"/>
<rect x="6.54004" y="799.564" width="2.14909" height="9.02227" transform="rotate(-90 6.54004 799.564)" fill="#F3D7AD"/>
<rect x="1" y="784.52" width="2.14909" height="14.5623" transform="rotate(-90 1 784.52)" fill="#F3D7AD"/>
<rect x="1" y="762.074" width="2.14909" height="11.2383" transform="rotate(-90 1 762.074)" fill="#F3D7AD"/>
<rect x="14.1377" y="782.371" width="1.42457" height="17.1927" fill="#F3D7AD"/>
<rect x="6.54004" y="791.923" width="1.42457" height="7.64122" fill="#F3D7AD"/>
<rect x="10.8137" y="759.926" width="1.42457" height="10.0291" fill="#F3D7AD"/>
<rect x="1" y="759.926" width="1.42457" height="24.5952" fill="#F3D7AD"/>
<rect x="6.54004" y="174.599" width="2.14909" height="9.02227" transform="rotate(-90 6.54004 174.599)" fill="#F3D7AD"/>
<rect x="1" y="159.555" width="2.14909" height="14.5623" transform="rotate(-90 1 159.555)" fill="#F3D7AD"/>
<rect x="1" y="137.109" width="2.14909" height="11.2383" transform="rotate(-90 1 137.109)" fill="#F3D7AD"/>
<rect x="14.1377" y="157.406" width="1.42457" height="17.1927" fill="#F3D7AD"/>
<rect x="6.54004" y="166.958" width="1.42457" height="7.64122" fill="#F3D7AD"/>
<rect x="10.8137" y="134.961" width="1.42457" height="10.0291" fill="#F3D7AD"/>
<rect x="1" y="134.961" width="1.42457" height="24.5952" fill="#F3D7AD"/>
<rect x="6.54004" y="565.051" width="2.14909" height="9.02227" transform="rotate(-90 6.54004 565.051)" fill="#F3D7AD"/>
<rect x="1" y="550.007" width="2.14909" height="14.5623" transform="rotate(-90 1 550.007)" fill="#F3D7AD"/>
<rect x="1" y="527.561" width="2.14909" height="11.2383" transform="rotate(-90 1 527.561)" fill="#F3D7AD"/>
<rect x="14.1377" y="547.858" width="1.42457" height="17.1927" fill="#F3D7AD"/>
<rect x="6.54004" y="557.41" width="1.42457" height="7.64122" fill="#F3D7AD"/>
<rect x="10.8137" y="525.412" width="1.42457" height="10.0291" fill="#F3D7AD"/>
<rect x="1" y="525.412" width="1.42457" height="24.5952" fill="#F3D7AD"/>
<rect x="6.54004" y="981.776" width="2.14909" height="9.02227" transform="rotate(-90 6.54004 981.776)" fill="#F3D7AD"/>
<rect x="1" y="966.732" width="2.14909" height="14.5623" transform="rotate(-90 1 966.732)" fill="#F3D7AD"/>
<rect x="1" y="944.286" width="2.14909" height="11.2383" transform="rotate(-90 1 944.286)" fill="#F3D7AD"/>
<rect x="14.1377" y="964.583" width="1.42457" height="17.1927" fill="#F3D7AD"/>
<rect x="6.54004" y="974.135" width="1.42457" height="7.64122" fill="#F3D7AD"/>
<rect x="10.8137" y="942.137" width="1.42457" height="10.0291" fill="#F3D7AD"/>
<rect x="1" y="942.137" width="1.42457" height="24.5952" fill="#F3D7AD"/>
<rect x="6.54004" y="356.811" width="2.14909" height="9.02227" transform="rotate(-90 6.54004 356.811)" fill="#F3D7AD"/>
<rect x="1" y="341.768" width="2.14909" height="14.5623" transform="rotate(-90 1 341.768)" fill="#F3D7AD"/>
<rect x="1" y="319.322" width="2.14909" height="11.2383" transform="rotate(-90 1 319.322)" fill="#F3D7AD"/>
<rect x="14.1377" y="339.618" width="1.42457" height="17.1927" fill="#F3D7AD"/>
<rect x="6.54004" y="349.17" width="1.42457" height="7.64122" fill="#F3D7AD"/>
<rect x="10.8137" y="317.173" width="1.42457" height="10.0291" fill="#F3D7AD"/>
<rect x="1" y="317.173" width="1.42457" height="24.5952" fill="#F3D7AD"/>
<rect x="6.54004" y="773.536" width="2.14909" height="9.02227" transform="rotate(-90 6.54004 773.536)" fill="#F3D7AD"/>
<rect x="1" y="758.492" width="2.14909" height="14.5623" transform="rotate(-90 1 758.492)" fill="#F3D7AD"/>
<rect x="1" y="736.046" width="2.14909" height="11.2383" transform="rotate(-90 1 736.046)" fill="#F3D7AD"/>
<rect x="14.1377" y="756.343" width="1.42457" height="17.1927" fill="#F3D7AD"/>
<rect x="6.54004" y="765.895" width="1.42457" height="7.64122" fill="#F3D7AD"/>
<rect x="10.8137" y="733.898" width="1.42457" height="10.0291" fill="#F3D7AD"/>
<rect x="1" y="733.898" width="1.42457" height="24.5952" fill="#F3D7AD"/>
<rect x="6.54004" y="148.572" width="2.14909" height="9.02227" transform="rotate(-90 6.54004 148.572)" fill="#F3D7AD"/>
<rect x="1" y="133.528" width="2.14909" height="14.5623" transform="rotate(-90 1 133.528)" fill="#F3D7AD"/>
<rect x="1" y="111.082" width="2.14909" height="11.2383" transform="rotate(-90 1 111.082)" fill="#F3D7AD"/>
<rect x="14.1377" y="131.379" width="1.42457" height="17.1927" fill="#F3D7AD"/>
<rect x="6.54004" y="140.931" width="1.42457" height="7.64122" fill="#F3D7AD"/>
<rect x="10.8137" y="108.933" width="1.42457" height="10.0291" fill="#F3D7AD"/>
<rect x="1" y="108.933" width="1.42457" height="24.5952" fill="#F3D7AD"/>
<rect x="6.54004" y="539.023" width="2.14909" height="9.02227" transform="rotate(-90 6.54004 539.023)" fill="#F3D7AD"/>
<rect x="1" y="523.979" width="2.14909" height="14.5623" transform="rotate(-90 1 523.979)" fill="#F3D7AD"/>
<rect x="1" y="501.534" width="2.14909" height="11.2383" transform="rotate(-90 1 501.534)" fill="#F3D7AD"/>
<rect x="14.1377" y="521.83" width="1.42457" height="17.1927" fill="#F3D7AD"/>
<rect x="6.54004" y="531.382" width="1.42457" height="7.64122" fill="#F3D7AD"/>
<rect x="10.8137" y="499.385" width="1.42457" height="10.0291" fill="#F3D7AD"/>
<rect x="1" y="499.385" width="1.42457" height="24.5952" fill="#F3D7AD"/>
<rect x="6.54004" y="955.748" width="2.14909" height="9.02227" transform="rotate(-90 6.54004 955.748)" fill="#F3D7AD"/>
<rect x="1" y="940.704" width="2.14909" height="14.5623" transform="rotate(-90 1 940.704)" fill="#F3D7AD"/>
<rect x="1" y="918.258" width="2.14909" height="11.2383" transform="rotate(-90 1 918.258)" fill="#F3D7AD"/>
<rect x="14.1377" y="938.555" width="1.42457" height="17.1927" fill="#F3D7AD"/>
<rect x="6.54004" y="948.107" width="1.42457" height="7.64122" fill="#F3D7AD"/>
<rect x="10.8137" y="916.11" width="1.42457" height="10.0291" fill="#F3D7AD"/>
<rect x="1" y="916.11" width="1.42457" height="24.5952" fill="#F3D7AD"/>
<rect x="6.54004" y="330.783" width="2.14909" height="9.02227" transform="rotate(-90 6.54004 330.783)" fill="#F3D7AD"/>
<rect x="1" y="315.739" width="2.14909" height="14.5623" transform="rotate(-90 1 315.739)" fill="#F3D7AD"/>
<rect x="1" y="293.294" width="2.14909" height="11.2383" transform="rotate(-90 1 293.294)" fill="#F3D7AD"/>
<rect x="14.1377" y="313.59" width="1.42457" height="17.1927" fill="#F3D7AD"/>
<rect x="6.54004" y="323.142" width="1.42457" height="7.64122" fill="#F3D7AD"/>
<rect x="10.8137" y="291.145" width="1.42457" height="10.0291" fill="#F3D7AD"/>
<rect x="1" y="291.145" width="1.42457" height="24.5952" fill="#F3D7AD"/>
<rect x="6.54004" y="747.508" width="2.14909" height="9.02227" transform="rotate(-90 6.54004 747.508)" fill="#F3D7AD"/>
<rect x="1" y="732.465" width="2.14909" height="14.5623" transform="rotate(-90 1 732.465)" fill="#F3D7AD"/>
<rect x="1" y="710.019" width="2.14909" height="11.2383" transform="rotate(-90 1 710.019)" fill="#F3D7AD"/>
<rect x="14.1377" y="730.316" width="1.42457" height="17.1927" fill="#F3D7AD"/>
<rect x="6.54004" y="739.867" width="1.42457" height="7.64122" fill="#F3D7AD"/>
<rect x="10.8137" y="707.87" width="1.42457" height="10.0291" fill="#F3D7AD"/>
<rect x="1" y="707.87" width="1.42457" height="24.5952" fill="#F3D7AD"/>
<rect x="6.54004" y="122.544" width="2.14909" height="9.02227" transform="rotate(-90 6.54004 122.544)" fill="#F3D7AD"/>
<rect x="1" y="107.5" width="2.14909" height="14.5623" transform="rotate(-90 1 107.5)" fill="#F3D7AD"/>
<rect x="1" y="85.054" width="2.14909" height="11.2383" transform="rotate(-90 1 85.054)" fill="#F3D7AD"/>
<rect x="14.1377" y="105.351" width="1.42457" height="17.1927" fill="#F3D7AD"/>
<rect x="6.54004" y="114.903" width="1.42457" height="7.64122" fill="#F3D7AD"/>
<rect x="10.8137" y="82.9053" width="1.42457" height="10.0291" fill="#F3D7AD"/>
<rect x="1" y="82.9053" width="1.42457" height="24.5952" fill="#F3D7AD"/>
<rect x="6.54004" y="512.995" width="2.14909" height="9.02227" transform="rotate(-90 6.54004 512.995)" fill="#F3D7AD"/>
<rect x="1" y="497.951" width="2.14909" height="14.5623" transform="rotate(-90 1 497.951)" fill="#F3D7AD"/>
<rect x="1" y="475.505" width="2.14909" height="11.2383" transform="rotate(-90 1 475.505)" fill="#F3D7AD"/>
<rect x="14.1377" y="495.802" width="1.42457" height="17.1927" fill="#F3D7AD"/>
<rect x="6.54004" y="505.353" width="1.42457" height="7.64122" fill="#F3D7AD"/>
<rect x="10.8137" y="473.356" width="1.42457" height="10.0291" fill="#F3D7AD"/>
<rect x="1" y="473.356" width="1.42457" height="24.5952" fill="#F3D7AD"/>
<rect x="6.54004" y="929.72" width="2.14909" height="9.02227" transform="rotate(-90 6.54004 929.72)" fill="#F3D7AD"/>
<rect x="1" y="914.676" width="2.14909" height="14.5623" transform="rotate(-90 1 914.676)" fill="#F3D7AD"/>
<rect x="1" y="892.23" width="2.14909" height="11.2383" transform="rotate(-90 1 892.23)" fill="#F3D7AD"/>
<rect x="14.1377" y="912.527" width="1.42457" height="17.1927" fill="#F3D7AD"/>
<rect x="6.54004" y="922.079" width="1.42457" height="7.64122" fill="#F3D7AD"/>
<rect x="10.8137" y="890.082" width="1.42457" height="10.0291" fill="#F3D7AD"/>
<rect x="1" y="890.082" width="1.42457" height="24.5952" fill="#F3D7AD"/>
<rect x="6.54004" y="304.755" width="2.14909" height="9.02227" transform="rotate(-90 6.54004 304.755)" fill="#F3D7AD"/>
<rect x="1" y="289.711" width="2.14909" height="14.5623" transform="rotate(-90 1 289.711)" fill="#F3D7AD"/>
<rect x="1" y="267.265" width="2.14909" height="11.2383" transform="rotate(-90 1 267.265)" fill="#F3D7AD"/>
<rect x="14.1377" y="287.562" width="1.42457" height="17.1927" fill="#F3D7AD"/>
<rect x="6.54004" y="297.114" width="1.42457" height="7.64122" fill="#F3D7AD"/>
<rect x="10.8137" y="265.117" width="1.42457" height="10.0291" fill="#F3D7AD"/>
<rect x="1" y="265.117" width="1.42457" height="24.5952" fill="#F3D7AD"/>
<rect x="6.54004" y="721.48" width="2.14909" height="9.02227" transform="rotate(-90 6.54004 721.48)" fill="#F3D7AD"/>
<rect x="1" y="706.436" width="2.14909" height="14.5623" transform="rotate(-90 1 706.436)" fill="#F3D7AD"/>
<rect x="1" y="683.991" width="2.14909" height="11.2383" transform="rotate(-90 1 683.991)" fill="#F3D7AD"/>
<rect x="14.1377" y="704.287" width="1.42457" height="17.1927" fill="#F3D7AD"/>
<rect x="6.54004" y="713.839" width="1.42457" height="7.64122" fill="#F3D7AD"/>
<rect x="10.8137" y="681.842" width="1.42457" height="10.0291" fill="#F3D7AD"/>
<rect x="1" y="681.842" width="1.42457" height="24.5952" fill="#F3D7AD"/>
<rect x="6.54004" y="96.5157" width="2.14909" height="9.02227" transform="rotate(-90 6.54004 96.5157)" fill="#F3D7AD"/>
<rect x="1" y="81.4719" width="2.14909" height="14.5623" transform="rotate(-90 1 81.4719)" fill="#F3D7AD"/>
<rect x="1" y="59.0259" width="2.14909" height="11.2383" transform="rotate(-90 1 59.0259)" fill="#F3D7AD"/>
<rect x="14.1377" y="79.3229" width="1.42457" height="17.1927" fill="#F3D7AD"/>
<rect x="6.54004" y="88.8744" width="1.42457" height="7.64122" fill="#F3D7AD"/>
<rect x="10.8137" y="56.8772" width="1.42457" height="10.0291" fill="#F3D7AD"/>
<rect x="1" y="56.8772" width="1.42457" height="24.5952" fill="#F3D7AD"/>
<rect x="1" y="1074.68" width="2.14909" height="11.2383" transform="rotate(-90 1 1074.68)" fill="#F3D7AD"/>
<rect x="10.8137" y="1072.53" width="1.42457" height="10.0291" fill="#F3D7AD"/>
<rect x="1" y="1072.53" width="1.42457" height="24.5952" fill="#F3D7AD"/>
<rect x="6.54004" y="487.206" width="2.14909" height="9.02227" transform="rotate(-90 6.54004 487.206)" fill="#F3D7AD"/>
<rect x="1" y="472.162" width="2.14909" height="14.5623" transform="rotate(-90 1 472.162)" fill="#F3D7AD"/>
<rect x="1" y="449.716" width="2.14909" height="11.2383" transform="rotate(-90 1 449.716)" fill="#F3D7AD"/>
<rect x="14.1377" y="470.013" width="1.42457" height="17.1927" fill="#F3D7AD"/>
<rect x="6.54004" y="479.565" width="1.42457" height="7.64122" fill="#F3D7AD"/>
<rect x="10.8137" y="447.568" width="1.42457" height="10.0291" fill="#F3D7AD"/>
<rect x="1" y="447.568" width="1.42457" height="24.5952" fill="#F3D7AD"/>
<rect x="6.54004" y="903.931" width="2.14909" height="9.02227" transform="rotate(-90 6.54004 903.931)" fill="#F3D7AD"/>
<rect x="1" y="888.887" width="2.14909" height="14.5623" transform="rotate(-90 1 888.887)" fill="#F3D7AD"/>
<rect x="1" y="866.441" width="2.14909" height="11.2383" transform="rotate(-90 1 866.441)" fill="#F3D7AD"/>
<rect x="14.1377" y="886.738" width="1.42457" height="17.1927" fill="#F3D7AD"/>
<rect x="6.54004" y="896.289" width="1.42457" height="7.64122" fill="#F3D7AD"/>
<rect x="10.8137" y="864.292" width="1.42457" height="10.0291" fill="#F3D7AD"/>
<rect x="1" y="864.292" width="1.42457" height="24.5952" fill="#F3D7AD"/>
<rect x="6.54004" y="278.966" width="2.14909" height="9.02227" transform="rotate(-90 6.54004 278.966)" fill="#F3D7AD"/>
<rect x="1" y="263.923" width="2.14909" height="14.5623" transform="rotate(-90 1 263.923)" fill="#F3D7AD"/>
<rect x="1" y="241.477" width="2.14909" height="11.2383" transform="rotate(-90 1 241.477)" fill="#F3D7AD"/>
<rect x="14.1377" y="261.774" width="1.42457" height="17.1927" fill="#F3D7AD"/>
<rect x="6.54004" y="271.325" width="1.42457" height="7.64122" fill="#F3D7AD"/>
<rect x="10.8137" y="239.328" width="1.42457" height="10.0291" fill="#F3D7AD"/>
<rect x="1" y="239.328" width="1.42457" height="24.5952" fill="#F3D7AD"/>
<rect x="6.54004" y="695.691" width="2.14909" height="9.02227" transform="rotate(-90 6.54004 695.691)" fill="#F3D7AD"/>
<rect x="1" y="680.647" width="2.14909" height="14.5623" transform="rotate(-90 1 680.647)" fill="#F3D7AD"/>
<rect x="1" y="658.201" width="2.14909" height="11.2383" transform="rotate(-90 1 658.201)" fill="#F3D7AD"/>
<rect x="14.1377" y="678.498" width="1.42457" height="17.1927" fill="#F3D7AD"/>
<rect x="6.54004" y="688.05" width="1.42457" height="7.64122" fill="#F3D7AD"/>
<rect x="10.8137" y="656.053" width="1.42457" height="10.0291" fill="#F3D7AD"/>
<rect x="1" y="656.053" width="1.42457" height="24.5952" fill="#F3D7AD"/>
<rect x="6.54004" y="70.7267" width="2.14909" height="9.02227" transform="rotate(-90 6.54004 70.7267)" fill="#F3D7AD"/>
<rect x="1" y="55.6828" width="2.14909" height="14.5623" transform="rotate(-90 1 55.6828)" fill="#F3D7AD"/>
<rect x="1" y="33.2369" width="2.14909" height="11.2383" transform="rotate(-90 1 33.2369)" fill="#F3D7AD"/>
<rect x="14.1377" y="53.5338" width="1.42457" height="17.1927" fill="#F3D7AD"/>
<rect x="6.54004" y="63.0854" width="1.42457" height="7.64122" fill="#F3D7AD"/>
<rect x="10.8137" y="31.0881" width="1.42457" height="10.0291" fill="#F3D7AD"/>
<rect x="1" y="31.0881" width="1.42457" height="24.5952" fill="#F3D7AD"/>
<rect x="1" y="1070.86" width="2.14909" height="14.5623" transform="rotate(-90 1 1070.86)" fill="#F3D7AD"/>
<rect x="1" y="1048.41" width="2.14909" height="11.2383" transform="rotate(-90 1 1048.41)" fill="#F3D7AD"/>
<rect x="14.1377" y="1068.71" width="1.42457" height="17.1927" fill="#F3D7AD"/>
<rect x="6.54004" y="1078.26" width="1.42457" height="7.64122" fill="#F3D7AD"/>
<rect x="10.8137" y="1046.27" width="1.42457" height="10.0291" fill="#F3D7AD"/>
<rect x="1" y="1046.27" width="1.42457" height="24.5952" fill="#F3D7AD"/>
<rect x="6.54004" y="460.939" width="2.14909" height="9.02227" transform="rotate(-90 6.54004 460.939)" fill="#F3D7AD"/>
<rect x="1" y="445.895" width="2.14909" height="14.5623" transform="rotate(-90 1 445.895)" fill="#F3D7AD"/>
<rect x="1" y="423.449" width="2.14909" height="11.2383" transform="rotate(-90 1 423.449)" fill="#F3D7AD"/>
<rect x="14.1377" y="443.746" width="1.42457" height="17.1927" fill="#F3D7AD"/>
<rect x="6.54004" y="453.298" width="1.42457" height="7.64122" fill="#F3D7AD"/>
<rect x="10.8137" y="421.301" width="1.42457" height="10.0291" fill="#F3D7AD"/>
<rect x="1" y="421.301" width="1.42457" height="24.5952" fill="#F3D7AD"/>
<rect x="6.54004" y="877.665" width="2.14909" height="9.02227" transform="rotate(-90 6.54004 877.665)" fill="#F3D7AD"/>
<rect x="1" y="862.621" width="2.14909" height="14.5623" transform="rotate(-90 1 862.621)" fill="#F3D7AD"/>
<rect x="1" y="840.175" width="2.14909" height="11.2383" transform="rotate(-90 1 840.175)" fill="#F3D7AD"/>
<rect x="14.1377" y="860.472" width="1.42457" height="17.1927" fill="#F3D7AD"/>
<rect x="6.54004" y="870.023" width="1.42457" height="7.64122" fill="#F3D7AD"/>
<rect x="10.8137" y="838.026" width="1.42457" height="10.0291" fill="#F3D7AD"/>
<rect x="1" y="838.026" width="1.42457" height="24.5952" fill="#F3D7AD"/>
<rect x="6.54004" y="252.7" width="2.14909" height="9.02227" transform="rotate(-90 6.54004 252.7)" fill="#F3D7AD"/>
<rect x="1" y="237.656" width="2.14909" height="14.5623" transform="rotate(-90 1 237.656)" fill="#F3D7AD"/>
<rect x="1" y="215.21" width="2.14909" height="11.2383" transform="rotate(-90 1 215.21)" fill="#F3D7AD"/>
<rect x="14.1377" y="235.507" width="1.42457" height="17.1927" fill="#F3D7AD"/>
<rect x="6.54004" y="245.058" width="1.42457" height="7.64122" fill="#F3D7AD"/>
<rect x="10.8137" y="213.061" width="1.42457" height="10.0291" fill="#F3D7AD"/>
<rect x="1" y="213.061" width="1.42457" height="24.5952" fill="#F3D7AD"/>
<rect x="6.54004" y="669.425" width="2.14909" height="9.02227" transform="rotate(-90 6.54004 669.425)" fill="#F3D7AD"/>
<rect x="1" y="654.381" width="2.14909" height="14.5623" transform="rotate(-90 1 654.381)" fill="#F3D7AD"/>
<rect x="1" y="631.935" width="2.14909" height="11.2383" transform="rotate(-90 1 631.935)" fill="#F3D7AD"/>
<rect x="14.1377" y="652.232" width="1.42457" height="17.1927" fill="#F3D7AD"/>
<rect x="6.54004" y="661.783" width="1.42457" height="7.64122" fill="#F3D7AD"/>
<rect x="10.8137" y="629.786" width="1.42457" height="10.0291" fill="#F3D7AD"/>
<rect x="1" y="629.786" width="1.42457" height="24.5952" fill="#F3D7AD"/>
<rect x="6.54004" y="44.4601" width="2.14909" height="9.02227" transform="rotate(-90 6.54004 44.4601)" fill="#F3D7AD"/>
<rect x="1" y="29.4162" width="2.14909" height="14.5623" transform="rotate(-90 1 29.4162)" fill="#F3D7AD"/>
<rect x="1" y="6.97028" width="2.14909" height="11.2383" transform="rotate(-90 1 6.97028)" fill="#F3D7AD"/>
<rect x="14.1377" y="27.2672" width="1.42457" height="17.1927" fill="#F3D7AD"/>
<rect x="6.54004" y="36.8188" width="1.42457" height="7.64122" fill="#F3D7AD"/>
<rect x="10.8137" y="4.82151" width="1.42457" height="10.0291" fill="#F3D7AD"/>
<rect x="1" y="4.82151" width="1.42457" height="24.5952" fill="#F3D7AD"/>
<rect x="6.54004" y="1059.64" width="2.14909" height="9.02227" transform="rotate(-90 6.54004 1059.64)" fill="#F3D7AD"/>
<rect x="1" y="1044.59" width="2.14909" height="14.5623" transform="rotate(-90 1 1044.59)" fill="#F3D7AD"/>
<rect x="1" y="1022.15" width="2.14909" height="11.2383" transform="rotate(-90 1 1022.15)" fill="#F3D7AD"/>
<rect x="14.1377" y="1042.44" width="1.42457" height="17.1927" fill="#F3D7AD"/>
<rect x="6.54004" y="1052" width="1.42457" height="7.64122" fill="#F3D7AD"/>
<rect x="10.8137" y="1020" width="1.42457" height="10.0291" fill="#F3D7AD"/>
<rect x="1" y="1020" width="1.42457" height="24.5952" fill="#F3D7AD"/>
<rect x="6.54004" y="434.673" width="2.14909" height="9.02227" transform="rotate(-90 6.54004 434.673)" fill="#F3D7AD"/>
<rect x="1" y="419.629" width="2.14909" height="14.5623" transform="rotate(-90 1 419.629)" fill="#F3D7AD"/>
<rect x="1" y="397.183" width="2.14909" height="11.2383" transform="rotate(-90 1 397.183)" fill="#F3D7AD"/>
<rect x="14.1377" y="417.48" width="1.42457" height="17.1927" fill="#F3D7AD"/>
<rect x="6.54004" y="427.031" width="1.42457" height="7.64122" fill="#F3D7AD"/>
<rect x="10.8137" y="395.034" width="1.42457" height="10.0291" fill="#F3D7AD"/>
<rect x="1" y="395.034" width="1.42457" height="24.5952" fill="#F3D7AD"/>
<rect x="6.54004" y="851.398" width="2.14909" height="9.02227" transform="rotate(-90 6.54004 851.398)" fill="#F3D7AD"/>
<rect x="1" y="836.354" width="2.14909" height="14.5623" transform="rotate(-90 1 836.354)" fill="#F3D7AD"/>
<rect x="1" y="813.908" width="2.14909" height="11.2383" transform="rotate(-90 1 813.908)" fill="#F3D7AD"/>
<rect x="14.1377" y="834.205" width="1.42457" height="17.1927" fill="#F3D7AD"/>
<rect x="6.54004" y="843.756" width="1.42457" height="7.64122" fill="#F3D7AD"/>
<rect x="10.8137" y="811.759" width="1.42457" height="10.0291" fill="#F3D7AD"/>
<rect x="1" y="811.759" width="1.42457" height="24.5952" fill="#F3D7AD"/>
<rect x="6.54004" y="226.433" width="2.14909" height="9.02227" transform="rotate(-90 6.54004 226.433)" fill="#F3D7AD"/>
<rect x="1" y="211.389" width="2.14909" height="14.5623" transform="rotate(-90 1 211.389)" fill="#F3D7AD"/>
<rect x="1" y="188.943" width="2.14909" height="11.2383" transform="rotate(-90 1 188.943)" fill="#F3D7AD"/>
<rect x="14.1377" y="209.24" width="1.42457" height="17.1927" fill="#F3D7AD"/>
<rect x="6.54004" y="218.792" width="1.42457" height="7.64122" fill="#F3D7AD"/>
<rect x="10.8137" y="186.795" width="1.42457" height="10.0291" fill="#F3D7AD"/>
<rect x="1" y="186.795" width="1.42457" height="24.5952" fill="#F3D7AD"/>
<rect x="6.54004" y="643.158" width="2.14909" height="9.02227" transform="rotate(-90 6.54004 643.158)" fill="#F3D7AD"/>
<rect x="1" y="628.114" width="2.14909" height="14.5623" transform="rotate(-90 1 628.114)" fill="#F3D7AD"/>
<rect x="1" y="605.668" width="2.14909" height="11.2383" transform="rotate(-90 1 605.668)" fill="#F3D7AD"/>
<rect x="14.1377" y="625.965" width="1.42457" height="17.1927" fill="#F3D7AD"/>
<rect x="6.54004" y="635.517" width="1.42457" height="7.64122" fill="#F3D7AD"/>
<rect x="10.8137" y="603.519" width="1.42457" height="10.0291" fill="#F3D7AD"/>
<rect x="1" y="603.519" width="1.42457" height="24.5952" fill="#F3D7AD"/>
<rect x="6.54004" y="18.193" width="2.14909" height="9.02227" transform="rotate(-90 6.54004 18.193)" fill="#F3D7AD"/>
<rect x="1" y="3.14912" width="2.14909" height="14.5623" transform="rotate(-90 1 3.14912)" fill="#F3D7AD"/>
<rect x="14.1377" y="1.0001" width="1.42457" height="17.1927" fill="#F3D7AD"/>
<rect x="6.54004" y="10.5517" width="1.42457" height="7.64122" fill="#F3D7AD"/>
<rect x="6.54004" y="1033.85" width="2.14909" height="9.02227" transform="rotate(-90 6.54004 1033.85)" fill="#F3D7AD"/>
<rect x="1" y="1018.8" width="2.14909" height="14.5623" transform="rotate(-90 1 1018.8)" fill="#F3D7AD"/>
<rect x="1" y="996.358" width="2.14909" height="11.2383" transform="rotate(-90 1 996.358)" fill="#F3D7AD"/>
<rect x="14.1377" y="1016.66" width="1.42457" height="17.1927" fill="#F3D7AD"/>
<rect x="6.54004" y="1026.21" width="1.42457" height="7.64122" fill="#F3D7AD"/>
<rect x="10.8137" y="994.21" width="1.42457" height="10.0291" fill="#F3D7AD"/>
<rect x="1" y="994.21" width="1.42457" height="24.5952" fill="#F3D7AD"/>
<rect x="6.54004" y="408.884" width="2.14909" height="9.02227" transform="rotate(-90 6.54004 408.884)" fill="#F3D7AD"/>
<rect x="1" y="393.84" width="2.14909" height="14.5623" transform="rotate(-90 1 393.84)" fill="#F3D7AD"/>
<rect x="1" y="371.394" width="2.14909" height="11.2383" transform="rotate(-90 1 371.394)" fill="#F3D7AD"/>
<rect x="14.1377" y="391.691" width="1.42457" height="17.1927" fill="#F3D7AD"/>
<rect x="6.54004" y="401.243" width="1.42457" height="7.64122" fill="#F3D7AD"/>
<rect x="10.8137" y="369.245" width="1.42457" height="10.0291" fill="#F3D7AD"/>
<rect x="1" y="369.245" width="1.42457" height="24.5952" fill="#F3D7AD"/>
<rect x="6.54004" y="825.609" width="2.14909" height="9.02227" transform="rotate(-90 6.54004 825.609)" fill="#F3D7AD"/>
<rect x="1" y="810.565" width="2.14909" height="14.5623" transform="rotate(-90 1 810.565)" fill="#F3D7AD"/>
<rect x="1" y="788.119" width="2.14909" height="11.2383" transform="rotate(-90 1 788.119)" fill="#F3D7AD"/>
<rect x="14.1377" y="808.416" width="1.42457" height="17.1927" fill="#F3D7AD"/>
<rect x="6.54004" y="817.967" width="1.42457" height="7.64122" fill="#F3D7AD"/>
<rect x="10.8137" y="785.97" width="1.42457" height="10.0291" fill="#F3D7AD"/>
<rect x="1" y="785.97" width="1.42457" height="24.5952" fill="#F3D7AD"/>
<rect x="6.54004" y="200.644" width="2.14909" height="9.02227" transform="rotate(-90 6.54004 200.644)" fill="#F3D7AD"/>
<rect x="1" y="185.6" width="2.14909" height="14.5623" transform="rotate(-90 1 185.6)" fill="#F3D7AD"/>
<rect x="1" y="163.154" width="2.14909" height="11.2383" transform="rotate(-90 1 163.154)" fill="#F3D7AD"/>
<rect x="14.1377" y="183.451" width="1.42457" height="17.1927" fill="#F3D7AD"/>
<rect x="6.54004" y="193.002" width="1.42457" height="7.64122" fill="#F3D7AD"/>
<rect x="10.8137" y="161.005" width="1.42457" height="10.0291" fill="#F3D7AD"/>
<rect x="1" y="161.005" width="1.42457" height="24.5952" fill="#F3D7AD"/>
<rect x="6.54004" y="617.369" width="2.14909" height="9.02227" transform="rotate(-90 6.54004 617.369)" fill="#F3D7AD"/>
<rect x="1" y="602.325" width="2.14909" height="14.5623" transform="rotate(-90 1 602.325)" fill="#F3D7AD"/>
<rect x="1" y="579.879" width="2.14909" height="11.2383" transform="rotate(-90 1 579.879)" fill="#F3D7AD"/>
<rect x="14.1377" y="600.176" width="1.42457" height="17.1927" fill="#F3D7AD"/>
<rect x="6.54004" y="609.727" width="1.42457" height="7.64122" fill="#F3D7AD"/>
<rect x="10.8137" y="577.73" width="1.42457" height="10.0291" fill="#F3D7AD"/>
<rect x="1" y="577.73" width="1.42457" height="24.5952" fill="#F3D7AD"/>
<rect x="5.54004" y="590.079" width="2.14909" height="9.02227" transform="rotate(-90 5.54004 590.079)" fill="#3D5BA9"/>
<rect y="575.035" width="2.14909" height="14.5623" transform="rotate(-90 0 575.035)" fill="#3D5BA9"/>
<rect y="552.589" width="2.14909" height="11.2383" transform="rotate(-90 0 552.589)" fill="#3D5BA9"/>
<rect x="13.1377" y="572.886" width="1.42457" height="17.1927" fill="#3D5BA9"/>
<rect x="5.54004" y="582.438" width="1.42457" height="7.64122" fill="#3D5BA9"/>
<rect x="9.81372" y="550.44" width="1.42457" height="10.0291" fill="#3D5BA9"/>
<rect y="550.44" width="1.42457" height="24.5952" fill="#3D5BA9"/>
<rect x="5.54004" y="1006.8" width="2.14909" height="9.02227" transform="rotate(-90 5.54004 1006.8)" fill="#3D5BA9"/>
<rect y="991.76" width="2.14909" height="14.5623" transform="rotate(-90 0 991.76)" fill="#3D5BA9"/>
<rect y="969.314" width="2.14909" height="11.2383" transform="rotate(-90 0 969.314)" fill="#3D5BA9"/>
<rect x="13.1377" y="989.611" width="1.42457" height="17.1927" fill="#3D5BA9"/>
<rect x="5.54004" y="999.163" width="1.42457" height="7.64122" fill="#3D5BA9"/>
<rect x="9.81372" y="967.166" width="1.42457" height="10.0291" fill="#3D5BA9"/>
<rect y="967.166" width="1.42457" height="24.5952" fill="#3D5BA9"/>
<rect x="5.54004" y="381.839" width="2.14909" height="9.02227" transform="rotate(-90 5.54004 381.839)" fill="#3D5BA9"/>
<rect y="366.796" width="2.14909" height="14.5623" transform="rotate(-90 0 366.796)" fill="#3D5BA9"/>
<rect y="344.35" width="2.14909" height="11.2383" transform="rotate(-90 0 344.35)" fill="#3D5BA9"/>
<rect x="13.1377" y="364.647" width="1.42457" height="17.1927" fill="#3D5BA9"/>
<rect x="5.54004" y="374.198" width="1.42457" height="7.64122" fill="#3D5BA9"/>
<rect x="9.81372" y="342.201" width="1.42457" height="10.0291" fill="#3D5BA9"/>
<rect y="342.201" width="1.42457" height="24.5952" fill="#3D5BA9"/>
<rect x="5.54004" y="798.564" width="2.14909" height="9.02227" transform="rotate(-90 5.54004 798.564)" fill="#3D5BA9"/>
<rect y="783.52" width="2.14909" height="14.5623" transform="rotate(-90 0 783.52)" fill="#3D5BA9"/>
<rect y="761.074" width="2.14909" height="11.2383" transform="rotate(-90 0 761.074)" fill="#3D5BA9"/>
<rect x="13.1377" y="781.371" width="1.42457" height="17.1927" fill="#3D5BA9"/>
<rect x="5.54004" y="790.923" width="1.42457" height="7.64122" fill="#3D5BA9"/>
<rect x="9.81372" y="758.926" width="1.42457" height="10.0291" fill="#3D5BA9"/>
<rect y="758.926" width="1.42457" height="24.5952" fill="#3D5BA9"/>
<rect x="5.54004" y="173.599" width="2.14909" height="9.02227" transform="rotate(-90 5.54004 173.599)" fill="#3D5BA9"/>
<rect y="158.555" width="2.14909" height="14.5623" transform="rotate(-90 0 158.555)" fill="#3D5BA9"/>
<rect y="136.109" width="2.14909" height="11.2383" transform="rotate(-90 0 136.109)" fill="#3D5BA9"/>
<rect x="13.1377" y="156.406" width="1.42457" height="17.1927" fill="#3D5BA9"/>
<rect x="5.54004" y="165.958" width="1.42457" height="7.64122" fill="#3D5BA9"/>
<rect x="9.81372" y="133.961" width="1.42457" height="10.0291" fill="#3D5BA9"/>
<rect y="133.961" width="1.42457" height="24.5952" fill="#3D5BA9"/>
<rect x="5.54004" y="564.051" width="2.14909" height="9.02227" transform="rotate(-90 5.54004 564.051)" fill="#3D5BA9"/>
<rect y="549.007" width="2.14909" height="14.5623" transform="rotate(-90 0 549.007)" fill="#3D5BA9"/>
<rect y="526.561" width="2.14909" height="11.2383" transform="rotate(-90 0 526.561)" fill="#3D5BA9"/>
<rect x="13.1377" y="546.858" width="1.42457" height="17.1927" fill="#3D5BA9"/>
<rect x="5.54004" y="556.41" width="1.42457" height="7.64122" fill="#3D5BA9"/>
<rect x="9.81372" y="524.412" width="1.42457" height="10.0291" fill="#3D5BA9"/>
<rect y="524.412" width="1.42457" height="24.5952" fill="#3D5BA9"/>
<rect x="5.54004" y="980.776" width="2.14909" height="9.02227" transform="rotate(-90 5.54004 980.776)" fill="#3D5BA9"/>
<rect y="965.732" width="2.14909" height="14.5623" transform="rotate(-90 0 965.732)" fill="#3D5BA9"/>
<rect y="943.286" width="2.14909" height="11.2383" transform="rotate(-90 0 943.286)" fill="#3D5BA9"/>
<rect x="13.1377" y="963.583" width="1.42457" height="17.1927" fill="#3D5BA9"/>
<rect x="5.54004" y="973.135" width="1.42457" height="7.64122" fill="#3D5BA9"/>
<rect x="9.81372" y="941.137" width="1.42457" height="10.0291" fill="#3D5BA9"/>
<rect y="941.137" width="1.42457" height="24.5952" fill="#3D5BA9"/>
<rect x="5.54004" y="355.811" width="2.14909" height="9.02227" transform="rotate(-90 5.54004 355.811)" fill="#3D5BA9"/>
<rect y="340.768" width="2.14909" height="14.5623" transform="rotate(-90 0 340.768)" fill="#3D5BA9"/>
<rect y="318.322" width="2.14909" height="11.2383" transform="rotate(-90 0 318.322)" fill="#3D5BA9"/>
<rect x="13.1377" y="338.618" width="1.42457" height="17.1927" fill="#3D5BA9"/>
<rect x="5.54004" y="348.17" width="1.42457" height="7.64122" fill="#3D5BA9"/>
<rect x="9.81372" y="316.173" width="1.42457" height="10.0291" fill="#3D5BA9"/>
<rect y="316.173" width="1.42457" height="24.5952" fill="#3D5BA9"/>
<rect x="5.54004" y="772.536" width="2.14909" height="9.02227" transform="rotate(-90 5.54004 772.536)" fill="#3D5BA9"/>
<rect y="757.492" width="2.14909" height="14.5623" transform="rotate(-90 0 757.492)" fill="#3D5BA9"/>
<rect y="735.046" width="2.14909" height="11.2383" transform="rotate(-90 0 735.046)" fill="#3D5BA9"/>
<rect x="13.1377" y="755.343" width="1.42457" height="17.1927" fill="#3D5BA9"/>
<rect x="5.54004" y="764.895" width="1.42457" height="7.64122" fill="#3D5BA9"/>
<rect x="9.81372" y="732.898" width="1.42457" height="10.0291" fill="#3D5BA9"/>
<rect y="732.898" width="1.42457" height="24.5952" fill="#3D5BA9"/>
<rect x="5.54004" y="147.572" width="2.14909" height="9.02227" transform="rotate(-90 5.54004 147.572)" fill="#3D5BA9"/>
<rect y="132.528" width="2.14909" height="14.5623" transform="rotate(-90 0 132.528)" fill="#3D5BA9"/>
<rect y="110.082" width="2.14909" height="11.2383" transform="rotate(-90 0 110.082)" fill="#3D5BA9"/>
<rect x="13.1377" y="130.379" width="1.42457" height="17.1927" fill="#3D5BA9"/>
<rect x="5.54004" y="139.931" width="1.42457" height="7.64122" fill="#3D5BA9"/>
<rect x="9.81372" y="107.933" width="1.42457" height="10.0291" fill="#3D5BA9"/>
<rect y="107.933" width="1.42457" height="24.5952" fill="#3D5BA9"/>
<rect x="5.54004" y="538.023" width="2.14909" height="9.02227" transform="rotate(-90 5.54004 538.023)" fill="#3D5BA9"/>
<rect y="522.979" width="2.14909" height="14.5623" transform="rotate(-90 0 522.979)" fill="#3D5BA9"/>
<rect y="500.534" width="2.14909" height="11.2383" transform="rotate(-90 0 500.534)" fill="#3D5BA9"/>
<rect x="13.1377" y="520.83" width="1.42457" height="17.1927" fill="#3D5BA9"/>
<rect x="5.54004" y="530.382" width="1.42457" height="7.64122" fill="#3D5BA9"/>
<rect x="9.81372" y="498.385" width="1.42457" height="10.0291" fill="#3D5BA9"/>
<rect y="498.385" width="1.42457" height="24.5952" fill="#3D5BA9"/>
<rect x="5.54004" y="954.748" width="2.14909" height="9.02227" transform="rotate(-90 5.54004 954.748)" fill="#3D5BA9"/>
<rect y="939.704" width="2.14909" height="14.5623" transform="rotate(-90 0 939.704)" fill="#3D5BA9"/>
<rect y="917.258" width="2.14909" height="11.2383" transform="rotate(-90 0 917.258)" fill="#3D5BA9"/>
<rect x="13.1377" y="937.555" width="1.42457" height="17.1927" fill="#3D5BA9"/>
<rect x="5.54004" y="947.107" width="1.42457" height="7.64122" fill="#3D5BA9"/>
<rect x="9.81372" y="915.11" width="1.42457" height="10.0291" fill="#3D5BA9"/>
<rect y="915.11" width="1.42457" height="24.5952" fill="#3D5BA9"/>
<rect x="5.54004" y="329.783" width="2.14909" height="9.02227" transform="rotate(-90 5.54004 329.783)" fill="#3D5BA9"/>
<rect y="314.739" width="2.14909" height="14.5623" transform="rotate(-90 0 314.739)" fill="#3D5BA9"/>
<rect y="292.294" width="2.14909" height="11.2383" transform="rotate(-90 0 292.294)" fill="#3D5BA9"/>
<rect x="13.1377" y="312.59" width="1.42457" height="17.1927" fill="#3D5BA9"/>
<rect x="5.54004" y="322.142" width="1.42457" height="7.64122" fill="#3D5BA9"/>
<rect x="9.81372" y="290.145" width="1.42457" height="10.0291" fill="#3D5BA9"/>
<rect y="290.145" width="1.42457" height="24.5952" fill="#3D5BA9"/>
<rect x="5.54004" y="746.508" width="2.14909" height="9.02227" transform="rotate(-90 5.54004 746.508)" fill="#3D5BA9"/>
<rect y="731.465" width="2.14909" height="14.5623" transform="rotate(-90 0 731.465)" fill="#3D5BA9"/>
<rect y="709.019" width="2.14909" height="11.2383" transform="rotate(-90 0 709.019)" fill="#3D5BA9"/>
<rect x="13.1377" y="729.316" width="1.42457" height="17.1927" fill="#3D5BA9"/>
<rect x="5.54004" y="738.867" width="1.42457" height="7.64122" fill="#3D5BA9"/>
<rect x="9.81372" y="706.87" width="1.42457" height="10.0291" fill="#3D5BA9"/>
<rect y="706.87" width="1.42457" height="24.5952" fill="#3D5BA9"/>
<rect x="5.54004" y="121.544" width="2.14909" height="9.02227" transform="rotate(-90 5.54004 121.544)" fill="#3D5BA9"/>
<rect y="106.5" width="2.14909" height="14.5623" transform="rotate(-90 0 106.5)" fill="#3D5BA9"/>
<rect y="84.054" width="2.14909" height="11.2383" transform="rotate(-90 0 84.054)" fill="#3D5BA9"/>
<rect x="13.1377" y="104.351" width="1.42457" height="17.1927" fill="#3D5BA9"/>
<rect x="5.54004" y="113.903" width="1.42457" height="7.64122" fill="#3D5BA9"/>
<rect x="9.81372" y="81.9053" width="1.42457" height="10.0291" fill="#3D5BA9"/>
<rect y="81.9053" width="1.42457" height="24.5952" fill="#3D5BA9"/>
<rect x="5.54004" y="511.995" width="2.14909" height="9.02227" transform="rotate(-90 5.54004 511.995)" fill="#3D5BA9"/>
<rect y="496.951" width="2.14909" height="14.5623" transform="rotate(-90 0 496.951)" fill="#3D5BA9"/>
<rect y="474.505" width="2.14909" height="11.2383" transform="rotate(-90 0 474.505)" fill="#3D5BA9"/>
<rect x="13.1377" y="494.802" width="1.42457" height="17.1927" fill="#3D5BA9"/>
<rect x="5.54004" y="504.353" width="1.42457" height="7.64122" fill="#3D5BA9"/>
<rect x="9.81372" y="472.356" width="1.42457" height="10.0291" fill="#3D5BA9"/>
<rect y="472.356" width="1.42457" height="24.5952" fill="#3D5BA9"/>
<rect x="5.54004" y="928.72" width="2.14909" height="9.02227" transform="rotate(-90 5.54004 928.72)" fill="#3D5BA9"/>
<rect y="913.676" width="2.14909" height="14.5623" transform="rotate(-90 0 913.676)" fill="#3D5BA9"/>
<rect y="891.23" width="2.14909" height="11.2383" transform="rotate(-90 0 891.23)" fill="#3D5BA9"/>
<rect x="13.1377" y="911.527" width="1.42457" height="17.1927" fill="#3D5BA9"/>
<rect x="5.54004" y="921.079" width="1.42457" height="7.64122" fill="#3D5BA9"/>
<rect x="9.81372" y="889.082" width="1.42457" height="10.0291" fill="#3D5BA9"/>
<rect y="889.082" width="1.42457" height="24.5952" fill="#3D5BA9"/>
<rect x="5.54004" y="303.755" width="2.14909" height="9.02227" transform="rotate(-90 5.54004 303.755)" fill="#3D5BA9"/>
<rect y="288.711" width="2.14909" height="14.5623" transform="rotate(-90 0 288.711)" fill="#3D5BA9"/>
<rect y="266.265" width="2.14909" height="11.2383" transform="rotate(-90 0 266.265)" fill="#3D5BA9"/>
<rect x="13.1377" y="286.562" width="1.42457" height="17.1927" fill="#3D5BA9"/>
<rect x="5.54004" y="296.114" width="1.42457" height="7.64122" fill="#3D5BA9"/>
<rect x="9.81372" y="264.117" width="1.42457" height="10.0291" fill="#3D5BA9"/>
<rect y="264.117" width="1.42457" height="24.5952" fill="#3D5BA9"/>
<rect x="5.54004" y="720.48" width="2.14909" height="9.02227" transform="rotate(-90 5.54004 720.48)" fill="#3D5BA9"/>
<rect y="705.436" width="2.14909" height="14.5623" transform="rotate(-90 0 705.436)" fill="#3D5BA9"/>
<rect y="682.991" width="2.14909" height="11.2383" transform="rotate(-90 0 682.991)" fill="#3D5BA9"/>
<rect x="13.1377" y="703.287" width="1.42457" height="17.1927" fill="#3D5BA9"/>
<rect x="5.54004" y="712.839" width="1.42457" height="7.64122" fill="#3D5BA9"/>
<rect x="9.81372" y="680.842" width="1.42457" height="10.0291" fill="#3D5BA9"/>
<rect y="680.842" width="1.42457" height="24.5952" fill="#3D5BA9"/>
<rect x="5.54004" y="95.5157" width="2.14909" height="9.02227" transform="rotate(-90 5.54004 95.5157)" fill="#3D5BA9"/>
<rect y="80.4719" width="2.14909" height="14.5623" transform="rotate(-90 0 80.4719)" fill="#3D5BA9"/>
<rect y="58.0259" width="2.14909" height="11.2383" transform="rotate(-90 0 58.0259)" fill="#3D5BA9"/>
<rect x="13.1377" y="78.3229" width="1.42457" height="17.1927" fill="#3D5BA9"/>
<rect x="5.54004" y="87.8744" width="1.42457" height="7.64122" fill="#3D5BA9"/>
<rect x="9.81372" y="55.8772" width="1.42457" height="10.0291" fill="#3D5BA9"/>
<rect y="55.8772" width="1.42457" height="24.5952" fill="#3D5BA9"/>
<rect y="1073.68" width="2.14909" height="11.2383" transform="rotate(-90 0 1073.68)" fill="#3D5BA9"/>
<rect x="9.81372" y="1071.53" width="1.42457" height="10.0291" fill="#3D5BA9"/>
<rect y="1071.53" width="1.42457" height="24.5952" fill="#3D5BA9"/>
<rect x="5.54004" y="486.206" width="2.14909" height="9.02227" transform="rotate(-90 5.54004 486.206)" fill="#3D5BA9"/>
<rect y="471.162" width="2.14909" height="14.5623" transform="rotate(-90 0 471.162)" fill="#3D5BA9"/>
<rect y="448.716" width="2.14909" height="11.2383" transform="rotate(-90 0 448.716)" fill="#3D5BA9"/>
<rect x="13.1377" y="469.013" width="1.42457" height="17.1927" fill="#3D5BA9"/>
<rect x="5.54004" y="478.565" width="1.42457" height="7.64122" fill="#3D5BA9"/>
<rect x="9.81372" y="446.568" width="1.42457" height="10.0291" fill="#3D5BA9"/>
<rect y="446.568" width="1.42457" height="24.5952" fill="#3D5BA9"/>
<rect x="5.54004" y="902.931" width="2.14909" height="9.02227" transform="rotate(-90 5.54004 902.931)" fill="#3D5BA9"/>
<rect y="887.887" width="2.14909" height="14.5623" transform="rotate(-90 0 887.887)" fill="#3D5BA9"/>
<rect y="865.441" width="2.14909" height="11.2383" transform="rotate(-90 0 865.441)" fill="#3D5BA9"/>
<rect x="13.1377" y="885.738" width="1.42457" height="17.1927" fill="#3D5BA9"/>
<rect x="5.54004" y="895.289" width="1.42457" height="7.64122" fill="#3D5BA9"/>
<rect x="9.81372" y="863.292" width="1.42457" height="10.0291" fill="#3D5BA9"/>
<rect y="863.292" width="1.42457" height="24.5952" fill="#3D5BA9"/>
<rect x="5.54004" y="277.966" width="2.14909" height="9.02227" transform="rotate(-90 5.54004 277.966)" fill="#3D5BA9"/>
<rect y="262.923" width="2.14909" height="14.5623" transform="rotate(-90 0 262.923)" fill="#3D5BA9"/>
<rect y="240.477" width="2.14909" height="11.2383" transform="rotate(-90 0 240.477)" fill="#3D5BA9"/>
<rect x="13.1377" y="260.774" width="1.42457" height="17.1927" fill="#3D5BA9"/>
<rect x="5.54004" y="270.325" width="1.42457" height="7.64122" fill="#3D5BA9"/>
<rect x="9.81372" y="238.328" width="1.42457" height="10.0291" fill="#3D5BA9"/>
<rect y="238.328" width="1.42457" height="24.5952" fill="#3D5BA9"/>
<rect x="5.54004" y="694.691" width="2.14909" height="9.02227" transform="rotate(-90 5.54004 694.691)" fill="#3D5BA9"/>
<rect y="679.647" width="2.14909" height="14.5623" transform="rotate(-90 0 679.647)" fill="#3D5BA9"/>
<rect y="657.201" width="2.14909" height="11.2383" transform="rotate(-90 0 657.201)" fill="#3D5BA9"/>
<rect x="13.1377" y="677.498" width="1.42457" height="17.1927" fill="#3D5BA9"/>
<rect x="5.54004" y="687.05" width="1.42457" height="7.64122" fill="#3D5BA9"/>
<rect x="9.81372" y="655.053" width="1.42457" height="10.0291" fill="#3D5BA9"/>
<rect y="655.053" width="1.42457" height="24.5952" fill="#3D5BA9"/>
<rect x="5.54004" y="69.7267" width="2.14909" height="9.02227" transform="rotate(-90 5.54004 69.7267)" fill="#3D5BA9"/>
<rect y="54.6828" width="2.14909" height="14.5623" transform="rotate(-90 0 54.6828)" fill="#3D5BA9"/>
<rect y="32.2369" width="2.14909" height="11.2383" transform="rotate(-90 0 32.2369)" fill="#3D5BA9"/>
<rect x="13.1377" y="52.5338" width="1.42457" height="17.1927" fill="#3D5BA9"/>
<rect x="5.54004" y="62.0854" width="1.42457" height="7.64122" fill="#3D5BA9"/>
<rect x="9.81372" y="30.0881" width="1.42457" height="10.0291" fill="#3D5BA9"/>
<rect y="30.0881" width="1.42457" height="24.5952" fill="#3D5BA9"/>
<rect y="1069.86" width="2.14909" height="14.5623" transform="rotate(-90 0 1069.86)" fill="#3D5BA9"/>
<rect y="1047.41" width="2.14909" height="11.2383" transform="rotate(-90 0 1047.41)" fill="#3D5BA9"/>
<rect x="13.1377" y="1067.71" width="1.42457" height="17.1927" fill="#3D5BA9"/>
<rect x="5.54004" y="1077.26" width="1.42457" height="7.64122" fill="#3D5BA9"/>
<rect x="9.81372" y="1045.27" width="1.42457" height="10.0291" fill="#3D5BA9"/>
<rect y="1045.27" width="1.42457" height="24.5952" fill="#3D5BA9"/>
<rect x="5.54004" y="459.939" width="2.14909" height="9.02227" transform="rotate(-90 5.54004 459.939)" fill="#3D5BA9"/>
<rect y="444.895" width="2.14909" height="14.5623" transform="rotate(-90 0 444.895)" fill="#3D5BA9"/>
<rect y="422.449" width="2.14909" height="11.2383" transform="rotate(-90 0 422.449)" fill="#3D5BA9"/>
<rect x="13.1377" y="442.746" width="1.42457" height="17.1927" fill="#3D5BA9"/>
<rect x="5.54004" y="452.298" width="1.42457" height="7.64122" fill="#3D5BA9"/>
<rect x="9.81372" y="420.301" width="1.42457" height="10.0291" fill="#3D5BA9"/>
<rect y="420.301" width="1.42457" height="24.5952" fill="#3D5BA9"/>
<rect x="5.54004" y="876.665" width="2.14909" height="9.02227" transform="rotate(-90 5.54004 876.665)" fill="#3D5BA9"/>
<rect y="861.621" width="2.14909" height="14.5623" transform="rotate(-90 0 861.621)" fill="#3D5BA9"/>
<rect y="839.175" width="2.14909" height="11.2383" transform="rotate(-90 0 839.175)" fill="#3D5BA9"/>
<rect x="13.1377" y="859.472" width="1.42457" height="17.1927" fill="#3D5BA9"/>
<rect x="5.54004" y="869.023" width="1.42457" height="7.64122" fill="#3D5BA9"/>
<rect x="9.81372" y="837.026" width="1.42457" height="10.0291" fill="#3D5BA9"/>
<rect y="837.026" width="1.42457" height="24.5952" fill="#3D5BA9"/>
<rect x="5.54004" y="251.7" width="2.14909" height="9.02227" transform="rotate(-90 5.54004 251.7)" fill="#3D5BA9"/>
<rect y="236.656" width="2.14909" height="14.5623" transform="rotate(-90 0 236.656)" fill="#3D5BA9"/>
<rect y="214.21" width="2.14909" height="11.2383" transform="rotate(-90 0 214.21)" fill="#3D5BA9"/>
<rect x="13.1377" y="234.507" width="1.42457" height="17.1927" fill="#3D5BA9"/>
<rect x="5.54004" y="244.058" width="1.42457" height="7.64122" fill="#3D5BA9"/>
<rect x="9.81372" y="212.061" width="1.42457" height="10.0291" fill="#3D5BA9"/>
<rect y="212.061" width="1.42457" height="24.5952" fill="#3D5BA9"/>
<rect x="5.54004" y="668.425" width="2.14909" height="9.02227" transform="rotate(-90 5.54004 668.425)" fill="#3D5BA9"/>
<rect y="653.381" width="2.14909" height="14.5623" transform="rotate(-90 0 653.381)" fill="#3D5BA9"/>
<rect y="630.935" width="2.14909" height="11.2383" transform="rotate(-90 0 630.935)" fill="#3D5BA9"/>
<rect x="13.1377" y="651.232" width="1.42457" height="17.1927" fill="#3D5BA9"/>
<rect x="5.54004" y="660.783" width="1.42457" height="7.64122" fill="#3D5BA9"/>
<rect x="9.81372" y="628.786" width="1.42457" height="10.0291" fill="#3D5BA9"/>
<rect y="628.786" width="1.42457" height="24.5952" fill="#3D5BA9"/>
<rect x="5.54004" y="43.4601" width="2.14909" height="9.02227" transform="rotate(-90 5.54004 43.4601)" fill="#3D5BA9"/>
<rect y="28.4162" width="2.14909" height="14.5623" transform="rotate(-90 0 28.4162)" fill="#3D5BA9"/>
<rect y="5.97028" width="2.14909" height="11.2383" transform="rotate(-90 0 5.97028)" fill="#3D5BA9"/>
<rect x="13.1377" y="26.2672" width="1.42457" height="17.1927" fill="#3D5BA9"/>
<rect x="5.54004" y="35.8188" width="1.42457" height="7.64122" fill="#3D5BA9"/>
<rect x="9.81372" y="3.82151" width="1.42457" height="10.0291" fill="#3D5BA9"/>
<rect y="3.82151" width="1.42457" height="24.5952" fill="#3D5BA9"/>
<rect x="5.54004" y="1058.64" width="2.14909" height="9.02227" transform="rotate(-90 5.54004 1058.64)" fill="#3D5BA9"/>
<rect y="1043.59" width="2.14909" height="14.5623" transform="rotate(-90 0 1043.59)" fill="#3D5BA9"/>
<rect y="1021.15" width="2.14909" height="11.2383" transform="rotate(-90 0 1021.15)" fill="#3D5BA9"/>
<rect x="13.1377" y="1041.44" width="1.42457" height="17.1927" fill="#3D5BA9"/>
<rect x="5.54004" y="1051" width="1.42457" height="7.64122" fill="#3D5BA9"/>
<rect x="9.81372" y="1019" width="1.42457" height="10.0291" fill="#3D5BA9"/>
<rect y="1019" width="1.42457" height="24.5952" fill="#3D5BA9"/>
<rect x="5.54004" y="433.673" width="2.14909" height="9.02227" transform="rotate(-90 5.54004 433.673)" fill="#3D5BA9"/>
<rect y="418.629" width="2.14909" height="14.5623" transform="rotate(-90 0 418.629)" fill="#3D5BA9"/>
<rect y="396.183" width="2.14909" height="11.2383" transform="rotate(-90 0 396.183)" fill="#3D5BA9"/>
<rect x="13.1377" y="416.48" width="1.42457" height="17.1927" fill="#3D5BA9"/>
<rect x="5.54004" y="426.031" width="1.42457" height="7.64122" fill="#3D5BA9"/>
<rect x="9.81372" y="394.034" width="1.42457" height="10.0291" fill="#3D5BA9"/>
<rect y="394.034" width="1.42457" height="24.5952" fill="#3D5BA9"/>
<rect x="5.54004" y="850.398" width="2.14909" height="9.02227" transform="rotate(-90 5.54004 850.398)" fill="#3D5BA9"/>
<rect y="835.354" width="2.14909" height="14.5623" transform="rotate(-90 0 835.354)" fill="#3D5BA9"/>
<rect y="812.908" width="2.14909" height="11.2383" transform="rotate(-90 0 812.908)" fill="#3D5BA9"/>
<rect x="13.1377" y="833.205" width="1.42457" height="17.1927" fill="#3D5BA9"/>
<rect x="5.54004" y="842.756" width="1.42457" height="7.64122" fill="#3D5BA9"/>
<rect x="9.81372" y="810.759" width="1.42457" height="10.0291" fill="#3D5BA9"/>
<rect y="810.759" width="1.42457" height="24.5952" fill="#3D5BA9"/>
<rect x="5.54004" y="225.433" width="2.14909" height="9.02227" transform="rotate(-90 5.54004 225.433)" fill="#3D5BA9"/>
<rect y="210.389" width="2.14909" height="14.5623" transform="rotate(-90 0 210.389)" fill="#3D5BA9"/>
<rect y="187.943" width="2.14909" height="11.2383" transform="rotate(-90 0 187.943)" fill="#3D5BA9"/>
<rect x="13.1377" y="208.24" width="1.42457" height="17.1927" fill="#3D5BA9"/>
<rect x="5.54004" y="217.792" width="1.42457" height="7.64122" fill="#3D5BA9"/>
<rect x="9.81372" y="185.795" width="1.42457" height="10.0291" fill="#3D5BA9"/>
<rect y="185.795" width="1.42457" height="24.5952" fill="#3D5BA9"/>
<rect x="5.54004" y="642.158" width="2.14909" height="9.02227" transform="rotate(-90 5.54004 642.158)" fill="#3D5BA9"/>
<rect y="627.114" width="2.14909" height="14.5623" transform="rotate(-90 0 627.114)" fill="#3D5BA9"/>
<rect y="604.668" width="2.14909" height="11.2383" transform="rotate(-90 0 604.668)" fill="#3D5BA9"/>
<rect x="13.1377" y="624.965" width="1.42457" height="17.1927" fill="#3D5BA9"/>
<rect x="5.54004" y="634.517" width="1.42457" height="7.64122" fill="#3D5BA9"/>
<rect x="9.81372" y="602.519" width="1.42457" height="10.0291" fill="#3D5BA9"/>
<rect y="602.519" width="1.42457" height="24.5952" fill="#3D5BA9"/>
<rect x="5.54004" y="17.193" width="2.14909" height="9.02227" transform="rotate(-90 5.54004 17.193)" fill="#3D5BA9"/>
<rect y="2.14912" width="2.14909" height="14.5623" transform="rotate(-90 0 2.14912)" fill="#3D5BA9"/>
<rect x="13.1377" y="0.00010433" width="1.42457" height="17.1927" fill="#3D5BA9"/>
<rect x="5.54004" y="9.55168" width="1.42457" height="7.64122" fill="#3D5BA9"/>
<rect x="5.54004" y="1032.85" width="2.14909" height="9.02227" transform="rotate(-90 5.54004 1032.85)" fill="#3D5BA9"/>
<rect y="1017.8" width="2.14909" height="14.5623" transform="rotate(-90 0 1017.8)" fill="#3D5BA9"/>
<rect y="995.358" width="2.14909" height="11.2383" transform="rotate(-90 0 995.358)" fill="#3D5BA9"/>
<rect x="13.1377" y="1015.66" width="1.42457" height="17.1927" fill="#3D5BA9"/>
<rect x="5.54004" y="1025.21" width="1.42457" height="7.64122" fill="#3D5BA9"/>
<rect x="9.81372" y="993.21" width="1.42457" height="10.0291" fill="#3D5BA9"/>
<rect y="993.21" width="1.42457" height="24.5952" fill="#3D5BA9"/>
<rect x="5.54004" y="407.884" width="2.14909" height="9.02227" transform="rotate(-90 5.54004 407.884)" fill="#3D5BA9"/>
<rect y="392.84" width="2.14909" height="14.5623" transform="rotate(-90 0 392.84)" fill="#3D5BA9"/>
<rect y="370.394" width="2.14909" height="11.2383" transform="rotate(-90 0 370.394)" fill="#3D5BA9"/>
<rect x="13.1377" y="390.691" width="1.42457" height="17.1927" fill="#3D5BA9"/>
<rect x="5.54004" y="400.243" width="1.42457" height="7.64122" fill="#3D5BA9"/>
<rect x="9.81372" y="368.245" width="1.42457" height="10.0291" fill="#3D5BA9"/>
<rect y="368.245" width="1.42457" height="24.5952" fill="#3D5BA9"/>
<rect x="5.54004" y="824.609" width="2.14909" height="9.02227" transform="rotate(-90 5.54004 824.609)" fill="#3D5BA9"/>
<rect y="809.565" width="2.14909" height="14.5623" transform="rotate(-90 0 809.565)" fill="#3D5BA9"/>
<rect y="787.119" width="2.14909" height="11.2383" transform="rotate(-90 0 787.119)" fill="#3D5BA9"/>
<rect x="13.1377" y="807.416" width="1.42457" height="17.1927" fill="#3D5BA9"/>
<rect x="5.54004" y="816.967" width="1.42457" height="7.64122" fill="#3D5BA9"/>
<rect x="9.81372" y="784.97" width="1.42457" height="10.0291" fill="#3D5BA9"/>
<rect y="784.97" width="1.42457" height="24.5952" fill="#3D5BA9"/>
<rect x="5.54004" y="199.644" width="2.14909" height="9.02227" transform="rotate(-90 5.54004 199.644)" fill="#3D5BA9"/>
<rect y="184.6" width="2.14909" height="14.5623" transform="rotate(-90 0 184.6)" fill="#3D5BA9"/>
<rect y="162.154" width="2.14909" height="11.2383" transform="rotate(-90 0 162.154)" fill="#3D5BA9"/>
<rect x="13.1377" y="182.451" width="1.42457" height="17.1927" fill="#3D5BA9"/>
<rect x="5.54004" y="192.002" width="1.42457" height="7.64122" fill="#3D5BA9"/>
<rect x="9.81372" y="160.005" width="1.42457" height="10.0291" fill="#3D5BA9"/>
<rect y="160.005" width="1.42457" height="24.5952" fill="#3D5BA9"/>
<rect x="5.54004" y="616.369" width="2.14909" height="9.02227" transform="rotate(-90 5.54004 616.369)" fill="#3D5BA9"/>
<rect y="601.325" width="2.14909" height="14.5623" transform="rotate(-90 0 601.325)" fill="#3D5BA9"/>
<rect y="578.879" width="2.14909" height="11.2383" transform="rotate(-90 0 578.879)" fill="#3D5BA9"/>
<rect x="13.1377" y="599.176" width="1.42457" height="17.1927" fill="#3D5BA9"/>
<rect x="5.54004" y="608.727" width="1.42457" height="7.64122" fill="#3D5BA9"/>
<rect x="9.81372" y="576.73" width="1.42457" height="10.0291" fill="#3D5BA9"/>
<rect y="576.73" width="1.42457" height="24.5952" fill="#3D5BA9"/>
</svg>
