<svg xmlns="http://www.w3.org/2000/svg" viewBox="0 0 134 67"><defs><style>.cls-1{fill:#122e78;}</style></defs><path class="cls-1" d="M6.56,9.3a7.23,7.23,0,0,1,3.58-.84v4.23H9.08A5.07,5.07,0,0,0,5.4,13.91q-1.26,1.21-1.26,4.23v10.4H0V8.78H4.14v2.87A6.57,6.57,0,0,1,6.56,9.3Zm4.67-4.89L6,7.39l-5.19-3V1.22L6,4.3l5.2-3.08Z"/><path class="cls-1" d="M31.61,20.19H16.31A5.49,5.49,0,0,0,18.09,24,5.71,5.71,0,0,0,22,25.42a4.85,4.85,0,0,0,4.72-2.76h4.47a8.89,8.89,0,0,1-3.29,4.46A9.73,9.73,0,0,1,22,28.86a10.28,10.28,0,0,1-5.14-1.27A9,9,0,0,1,13.32,24,10.79,10.79,0,0,1,12,18.64a11.05,11.05,0,0,1,1.25-5.36A8.69,8.69,0,0,1,16.8,9.72,10.61,10.61,0,0,1,22,8.46a10.34,10.34,0,0,1,5.05,1.22,8.73,8.73,0,0,1,3.45,3.42,10.27,10.27,0,0,1,1.23,5.08A12.35,12.35,0,0,1,31.61,20.19Zm-4.18-3.3a4.62,4.62,0,0,0-1.63-3.62,5.91,5.91,0,0,0-4-1.37,5.33,5.33,0,0,0-3.67,1.35,5.55,5.55,0,0,0-1.82,3.64Z"/><path class="cls-1" d="M35.15,13.28a8.81,8.81,0,0,1,3.47-3.56,10.11,10.11,0,0,1,5.09-1.26,10,10,0,0,1,6,1.71A8.35,8.35,0,0,1,52.94,15H48.47a4.7,4.7,0,0,0-1.75-2.29,5.19,5.19,0,0,0-3-.83,5,5,0,0,0-4.05,1.78,7.41,7.41,0,0,0-1.51,5,7.51,7.51,0,0,0,1.51,5,5,5,0,0,0,4.05,1.79,4.6,4.6,0,0,0,4.76-3.12h4.47a8.84,8.84,0,0,1-3.27,4.79,9.77,9.77,0,0,1-6,1.77,10,10,0,0,1-5.09-1.27A9,9,0,0,1,35.15,24a11.11,11.11,0,0,1-1.25-5.36A11.16,11.16,0,0,1,35.15,13.28Z"/><path class="cls-1" d="M64.45,18.68l9.23,9.86H68.09L60.68,20v8.5H56.53V2h4.15V17.42l7.26-8.64h5.74Z"/><path class="cls-1" d="M94.32,20.19H79A5.49,5.49,0,0,0,80.8,24a5.71,5.71,0,0,0,3.93,1.43,4.85,4.85,0,0,0,4.72-2.76h4.47a8.89,8.89,0,0,1-3.29,4.46,9.73,9.73,0,0,1-5.9,1.74,10.28,10.28,0,0,1-5.14-1.27A9,9,0,0,1,76,24a10.79,10.79,0,0,1-1.29-5.36A11.05,11.05,0,0,1,76,13.28a8.69,8.69,0,0,1,3.52-3.56,10.59,10.59,0,0,1,5.22-1.26,10.34,10.34,0,0,1,5,1.22,8.73,8.73,0,0,1,3.45,3.42,10.27,10.27,0,0,1,1.23,5.08A12.35,12.35,0,0,1,94.32,20.19Zm-4.18-3.3a4.62,4.62,0,0,0-1.63-3.62,5.91,5.91,0,0,0-4-1.37,5.33,5.33,0,0,0-3.67,1.35,5.55,5.55,0,0,0-1.82,3.64ZM88.36,3.48l-8,3.91v-3l8-4.38Z"/><path class="cls-1" d="M6.56,38.37a7.23,7.23,0,0,1,3.58-.84v4.23H9.08A5.07,5.07,0,0,0,5.4,43Q4.14,44.2,4.14,47.21v10.4H0V37.85H4.14v2.87A6.57,6.57,0,0,1,6.56,38.37Z"/><path class="cls-1" d="M31.61,49.25H16.31a5.45,5.45,0,0,0,1.78,3.8A5.67,5.67,0,0,0,22,54.49a4.85,4.85,0,0,0,4.72-2.76h4.47a8.94,8.94,0,0,1-3.29,4.46A9.73,9.73,0,0,1,22,57.93a10.28,10.28,0,0,1-5.14-1.27,9,9,0,0,1-3.56-3.59A10.82,10.82,0,0,1,12,47.71a11,11,0,0,1,1.25-5.36,8.69,8.69,0,0,1,3.52-3.56A10.61,10.61,0,0,1,22,37.53a10.34,10.34,0,0,1,5.05,1.22,8.67,8.67,0,0,1,3.45,3.42,10.24,10.24,0,0,1,1.23,5.08A12.14,12.14,0,0,1,31.61,49.25ZM27.43,46a4.64,4.64,0,0,0-1.63-3.63,6,6,0,0,0-4-1.36,5.33,5.33,0,0,0-3.67,1.35A5.55,5.55,0,0,0,16.35,46Z"/><path class="cls-1" d="M35.15,42.35a8.81,8.81,0,0,1,3.47-3.56,10.11,10.11,0,0,1,5.09-1.26,10.12,10.12,0,0,1,6,1.7,8.41,8.41,0,0,1,3.22,4.86H48.47a4.7,4.7,0,0,0-1.75-2.29,5.19,5.19,0,0,0-3-.83,5,5,0,0,0-4.05,1.78,7.41,7.41,0,0,0-1.51,5,7.51,7.51,0,0,0,1.51,5,5,5,0,0,0,4.05,1.79,4.6,4.6,0,0,0,4.76-3.12h4.47a8.84,8.84,0,0,1-3.27,4.79,9.77,9.77,0,0,1-6,1.77,10,10,0,0,1-5.09-1.27,9,9,0,0,1-3.47-3.59,12.12,12.12,0,0,1,0-10.72Z"/><path class="cls-1" d="M74.74,49.25H59.44a5.41,5.41,0,0,0,1.78,3.8,5.65,5.65,0,0,0,3.92,1.44,4.86,4.86,0,0,0,4.73-2.76h4.47a9,9,0,0,1-3.29,4.46,9.76,9.76,0,0,1-5.91,1.74A10.34,10.34,0,0,1,60,56.66a9.17,9.17,0,0,1-3.56-3.59,10.82,10.82,0,0,1-1.29-5.36,11,11,0,0,1,1.26-5.36,8.69,8.69,0,0,1,3.52-3.56,10.55,10.55,0,0,1,5.21-1.26,10.31,10.31,0,0,1,5,1.22,8.69,8.69,0,0,1,3.46,3.42,10.24,10.24,0,0,1,1.23,5.08A13.35,13.35,0,0,1,74.74,49.25ZM70.56,46a4.65,4.65,0,0,0-1.64-3.63A5.91,5.91,0,0,0,65,41a5.35,5.35,0,0,0-3.67,1.35A5.59,5.59,0,0,0,59.48,46Z"/><path class="cls-1" d="M85.42,38.46a8.87,8.87,0,0,1,4.1-.93A9.31,9.31,0,0,1,94.3,38.8a9.07,9.07,0,0,1,3.4,3.57,11,11,0,0,1,1.23,5.27A11.28,11.28,0,0,1,97.7,53a9.18,9.18,0,0,1-3.4,3.66,9.06,9.06,0,0,1-4.78,1.31A8.8,8.8,0,0,1,85.45,57a9.13,9.13,0,0,1-2.9-2.28V67H78.41V37.85h4.14v2.91A8.36,8.36,0,0,1,85.42,38.46Zm8.44,5.65a5.75,5.75,0,0,0-2.25-2.26,6.15,6.15,0,0,0-3-.77,6,6,0,0,0-5.21,3.08,7.09,7.09,0,0,0-.85,3.55,7.2,7.2,0,0,0,.85,3.57,5.82,5.82,0,0,0,2.25,2.31,5.94,5.94,0,0,0,8.21-2.36,7.3,7.3,0,0,0,.86-3.59A7,7,0,0,0,93.86,44.11Z"/><path class="cls-1" d="M107.33,41.19V52.12a2.11,2.11,0,0,0,.52,1.6,2.66,2.66,0,0,0,1.8.48h2.55v3.41h-3.27a6.36,6.36,0,0,1-4.29-1.29,5.26,5.26,0,0,1-1.49-4.2V41.19h-2.36V37.85h2.36V32.94h4.18v4.91h4.87v3.34Z"/><path class="cls-1" d="M133.49,37.85l-12.28,29h-4.29L121,57.28,113.1,37.85h4.62l5.63,15.06,5.85-15.06Z"/></svg>