<svg width="234" height="48" viewBox="0 0 234 48" fill="none" xmlns="http://www.w3.org/2000/svg">
<path d="M14.7601 37V18.504H19.1121V21.352C19.7521 20.264 20.3921 19.4853 21.0321 19.016C21.6721 18.5253 22.3761 18.28 23.1441 18.28C23.2721 18.28 23.3787 18.2907 23.4641 18.312C23.5707 18.312 23.6881 18.3227 23.8161 18.344V22.856C23.5601 22.7493 23.2721 22.664 22.9521 22.6C22.6534 22.5147 22.3441 22.472 22.0241 22.472C21.4481 22.472 20.9254 22.6107 20.4561 22.888C19.9867 23.1653 19.5387 23.624 19.1121 24.264V37H14.7601ZM17.0001 16.584L14.1841 10.824H17.3841L19.1121 14.44L20.8401 10.824H24.0401L21.2241 16.584H17.0001Z" fill="#122E78"/>
<path d="M31.5453 37.288C30.1587 37.288 29.028 37.032 28.1533 36.52C27.2787 35.9867 26.628 35.2187 26.2013 34.216C25.796 33.192 25.5933 31.9653 25.5933 30.536V24.968C25.5933 23.496 25.796 22.2587 26.2013 21.256C26.628 20.2533 27.2787 19.496 28.1533 18.984C29.0493 18.472 30.18 18.216 31.5453 18.216C33.0173 18.216 34.1587 18.4933 34.9693 19.048C35.8013 19.6027 36.388 20.4133 36.7293 21.48C37.092 22.5253 37.2733 23.8053 37.2733 25.32V27.944H29.9133V31.592C29.9133 32.1893 29.9667 32.68 30.0733 33.064C30.2013 33.448 30.3933 33.7253 30.6493 33.896C30.9053 34.0667 31.2147 34.152 31.5773 34.152C31.9613 34.152 32.2707 34.0667 32.5053 33.896C32.74 33.704 32.9107 33.4373 33.0173 33.096C33.124 32.7333 33.1773 32.2853 33.1773 31.752V30.216H37.2413V31.464C37.2413 33.3413 36.772 34.7813 35.8333 35.784C34.8947 36.7867 33.4653 37.288 31.5453 37.288ZM29.9133 25.8H33.1773V24.04C33.1773 23.4 33.124 22.888 33.0173 22.504C32.9107 22.0987 32.74 21.8107 32.5053 21.64C32.2707 21.448 31.94 21.352 31.5133 21.352C31.1293 21.352 30.82 21.448 30.5853 21.64C30.3507 21.832 30.18 22.152 30.0733 22.6C29.9667 23.048 29.9133 23.688 29.9133 24.52V25.8Z" fill="#122E78"/>
<path d="M45.7946 37.288C44.3653 37.288 43.2132 37.0213 42.3386 36.488C41.4852 35.9333 40.8559 35.1547 40.4506 34.152C40.0666 33.128 39.8746 31.9227 39.8746 30.536V24.968C39.8746 23.5387 40.0666 22.3227 40.4506 21.32C40.8559 20.3173 41.4959 19.5493 42.3706 19.016C43.2452 18.4827 44.3866 18.216 45.7946 18.216C47.1173 18.216 48.1946 18.4293 49.0266 18.856C49.8799 19.2613 50.4986 19.8907 50.8826 20.744C51.2666 21.576 51.4586 22.632 51.4586 23.912V25.448H47.3626V23.816C47.3626 23.176 47.3092 22.6747 47.2026 22.312C47.1172 21.928 46.9572 21.6613 46.7226 21.512C46.4879 21.3413 46.1786 21.256 45.7946 21.256C45.4106 21.256 45.1012 21.3627 44.8666 21.576C44.6319 21.768 44.4612 22.088 44.3546 22.536C44.2692 22.984 44.2266 23.6027 44.2266 24.392V31.176C44.2266 32.3707 44.3546 33.1813 44.6106 33.608C44.8666 34.0133 45.2719 34.216 45.8266 34.216C46.2532 34.216 46.5732 34.12 46.7866 33.928C47.0212 33.736 47.1706 33.4587 47.2346 33.096C47.3199 32.712 47.3626 32.2533 47.3626 31.72V29.736H51.4586V31.496C51.4586 32.7333 51.2559 33.7893 50.8506 34.664C50.4666 35.5387 49.8479 36.2 48.9946 36.648C48.1626 37.0747 47.0959 37.288 45.7946 37.288Z" fill="#122E78"/>
<path d="M54.3523 37V11.08H58.7043V25.96L63.4723 18.504H68.2083L63.5683 25.928L68.1123 37H63.5363L60.1763 27.88L58.7043 29.928V37H54.3523Z" fill="#122E78"/>
<path d="M75.4203 37.288C74.0337 37.288 72.903 37.032 72.0283 36.52C71.1537 35.9867 70.503 35.2187 70.0763 34.216C69.671 33.192 69.4683 31.9653 69.4683 30.536V24.968C69.4683 23.496 69.671 22.2587 70.0763 21.256C70.503 20.2533 71.1537 19.496 72.0283 18.984C72.9243 18.472 74.055 18.216 75.4203 18.216C76.8923 18.216 78.0337 18.4933 78.8443 19.048C79.6763 19.6027 80.263 20.4133 80.6043 21.48C80.967 22.5253 81.1483 23.8053 81.1483 25.32V27.944H73.7883V31.592C73.7883 32.1893 73.8417 32.68 73.9483 33.064C74.0763 33.448 74.2683 33.7253 74.5243 33.896C74.7803 34.0667 75.0897 34.152 75.4523 34.152C75.8363 34.152 76.1457 34.0667 76.3803 33.896C76.615 33.704 76.7857 33.4373 76.8923 33.096C76.999 32.7333 77.0523 32.2853 77.0523 31.752V30.216H81.1163V31.464C81.1163 33.3413 80.647 34.7813 79.7083 35.784C78.7697 36.7867 77.3403 37.288 75.4203 37.288ZM73.7883 25.8H77.0523V24.04C77.0523 23.4 76.999 22.888 76.8923 22.504C76.7857 22.0987 76.615 21.8107 76.3803 21.64C76.1457 21.448 75.815 21.352 75.3883 21.352C75.0043 21.352 74.695 21.448 74.4603 21.64C74.2257 21.832 74.055 22.152 73.9483 22.6C73.8417 23.048 73.7883 23.688 73.7883 24.52V25.8ZM74.0443 16.712L75.9963 10.312H80.3803L76.5723 16.712H74.0443Z" fill="#122E78"/>
<path d="M84.2616 28.008V25.064H91.9736V28.008H84.2616Z" fill="#122E78"/>
<path d="M95.5726 37V18.504H99.9246V21.352C100.565 20.264 101.205 19.4853 101.845 19.016C102.485 18.5253 103.189 18.28 103.957 18.28C104.085 18.28 104.191 18.2907 104.277 18.312C104.383 18.312 104.501 18.3227 104.629 18.344V22.856C104.373 22.7493 104.085 22.664 103.765 22.6C103.466 22.5147 103.157 22.472 102.837 22.472C102.261 22.472 101.738 22.6107 101.269 22.888C100.799 23.1653 100.351 23.624 99.9246 24.264V37H95.5726Z" fill="#122E78"/>
<path d="M112.358 37.288C110.971 37.288 109.841 37.032 108.966 36.52C108.091 35.9867 107.44 35.2187 107.014 34.216C106.608 33.192 106.406 31.9653 106.406 30.536V24.968C106.406 23.496 106.608 22.2587 107.014 21.256C107.44 20.2533 108.091 19.496 108.966 18.984C109.862 18.472 110.993 18.216 112.358 18.216C113.83 18.216 114.971 18.4933 115.782 19.048C116.614 19.6027 117.2 20.4133 117.542 21.48C117.904 22.5253 118.086 23.8053 118.086 25.32V27.944H110.726V31.592C110.726 32.1893 110.779 32.68 110.886 33.064C111.014 33.448 111.206 33.7253 111.462 33.896C111.718 34.0667 112.027 34.152 112.39 34.152C112.774 34.152 113.083 34.0667 113.318 33.896C113.552 33.704 113.723 33.4373 113.83 33.096C113.937 32.7333 113.99 32.2853 113.99 31.752V30.216H118.054V31.464C118.054 33.3413 117.585 34.7813 116.646 35.784C115.707 36.7867 114.278 37.288 112.358 37.288ZM110.726 25.8H113.99V24.04C113.99 23.4 113.937 22.888 113.83 22.504C113.723 22.0987 113.552 21.8107 113.318 21.64C113.083 21.448 112.753 21.352 112.326 21.352C111.942 21.352 111.633 21.448 111.398 21.64C111.163 21.832 110.993 22.152 110.886 22.6C110.779 23.048 110.726 23.688 110.726 24.52V25.8Z" fill="#122E78"/>
<path d="M126.607 37.288C125.178 37.288 124.026 37.0213 123.151 36.488C122.298 35.9333 121.668 35.1547 121.263 34.152C120.879 33.128 120.687 31.9227 120.687 30.536V24.968C120.687 23.5387 120.879 22.3227 121.263 21.32C121.668 20.3173 122.308 19.5493 123.183 19.016C124.058 18.4827 125.199 18.216 126.607 18.216C127.93 18.216 129.007 18.4293 129.839 18.856C130.692 19.2613 131.311 19.8907 131.695 20.744C132.079 21.576 132.271 22.632 132.271 23.912V25.448H128.175V23.816C128.175 23.176 128.122 22.6747 128.015 22.312C127.93 21.928 127.77 21.6613 127.535 21.512C127.3 21.3413 126.991 21.256 126.607 21.256C126.223 21.256 125.914 21.3627 125.679 21.576C125.444 21.768 125.274 22.088 125.167 22.536C125.082 22.984 125.039 23.6027 125.039 24.392V31.176C125.039 32.3707 125.167 33.1813 125.423 33.608C125.679 34.0133 126.084 34.216 126.639 34.216C127.066 34.216 127.386 34.12 127.599 33.928C127.834 33.736 127.983 33.4587 128.047 33.096C128.132 32.712 128.175 32.2533 128.175 31.72V29.736H132.271V31.496C132.271 32.7333 132.068 33.7893 131.663 34.664C131.279 35.5387 130.66 36.2 129.807 36.648C128.975 37.0747 127.908 37.288 126.607 37.288Z" fill="#122E78"/>
<path d="M140.733 37.288C139.346 37.288 138.216 37.032 137.341 36.52C136.466 35.9867 135.815 35.2187 135.389 34.216C134.983 33.192 134.781 31.9653 134.781 30.536V24.968C134.781 23.496 134.983 22.2587 135.389 21.256C135.815 20.2533 136.466 19.496 137.341 18.984C138.237 18.472 139.368 18.216 140.733 18.216C142.205 18.216 143.346 18.4933 144.157 19.048C144.989 19.6027 145.575 20.4133 145.917 21.48C146.279 22.5253 146.461 23.8053 146.461 25.32V27.944H139.101V31.592C139.101 32.1893 139.154 32.68 139.261 33.064C139.389 33.448 139.581 33.7253 139.837 33.896C140.093 34.0667 140.402 34.152 140.765 34.152C141.149 34.152 141.458 34.0667 141.693 33.896C141.927 33.704 142.098 33.4373 142.205 33.096C142.311 32.7333 142.365 32.2853 142.365 31.752V30.216H146.429V31.464C146.429 33.3413 145.959 34.7813 145.021 35.784C144.082 36.7867 142.653 37.288 140.733 37.288ZM139.101 25.8H142.365V24.04C142.365 23.4 142.311 22.888 142.205 22.504C142.098 22.0987 141.927 21.8107 141.693 21.64C141.458 21.448 141.128 21.352 140.701 21.352C140.317 21.352 140.008 21.448 139.773 21.64C139.538 21.832 139.368 22.152 139.261 22.6C139.154 23.048 139.101 23.688 139.101 24.52V25.8Z" fill="#122E78"/>
<path d="M149.414 43.08V18.504H153.766V19.912C154.299 19.4 154.886 18.9947 155.526 18.696C156.166 18.376 156.838 18.216 157.542 18.216C158.374 18.216 159.057 18.408 159.59 18.792C160.123 19.176 160.539 19.688 160.838 20.328C161.137 20.9467 161.339 21.6187 161.446 22.344C161.574 23.048 161.638 23.7307 161.638 24.392V30.664C161.638 31.88 161.489 32.9893 161.19 33.992C160.913 34.9947 160.454 35.7947 159.814 36.392C159.195 36.9893 158.363 37.288 157.318 37.288C156.657 37.288 156.027 37.128 155.43 36.808C154.854 36.488 154.299 36.0827 153.766 35.592V43.08H149.414ZM155.686 34.248C156.155 34.248 156.497 34.0987 156.71 33.8C156.945 33.48 157.094 33.064 157.158 32.552C157.243 32.0187 157.286 31.4427 157.286 30.824V24.2C157.286 23.624 157.243 23.112 157.158 22.664C157.073 22.1947 156.913 21.8213 156.678 21.544C156.443 21.2667 156.102 21.128 155.654 21.128C155.313 21.128 154.971 21.2133 154.63 21.384C154.31 21.5333 154.022 21.7147 153.766 21.928V33.608C154.043 33.8 154.342 33.96 154.662 34.088C154.982 34.1947 155.323 34.248 155.686 34.248Z" fill="#122E78"/>
<path d="M169.977 37.224C168.803 37.224 167.875 37.032 167.193 36.648C166.531 36.264 166.062 35.7093 165.785 34.984C165.507 34.2587 165.369 33.3947 165.369 32.392V21.384H163.513V18.504H165.369V12.968H169.753V18.504H172.569V21.384H169.753V32.008C169.753 32.648 169.891 33.1067 170.169 33.384C170.446 33.64 170.862 33.768 171.417 33.768C171.651 33.768 171.875 33.7573 172.089 33.736C172.323 33.7147 172.547 33.6933 172.761 33.672V37C172.398 37.0427 171.971 37.0853 171.481 37.128C171.011 37.192 170.51 37.224 169.977 37.224Z" fill="#122E78"/>
<path d="M175.386 42.024V38.888C176.133 38.888 176.74 38.8453 177.21 38.76C177.679 38.6747 178.02 38.5253 178.234 38.312C178.447 38.0987 178.554 37.8 178.554 37.416C178.554 37.1387 178.479 36.7013 178.33 36.104C178.202 35.5067 178.052 34.856 177.882 34.152L173.818 18.504H178.042L180.442 30.696L182.522 18.504H186.714L182.394 37.736C182.159 38.824 181.764 39.6773 181.21 40.296C180.655 40.9147 179.962 41.352 179.13 41.608C178.298 41.8853 177.327 42.024 176.218 42.024H175.386Z" fill="#122E78"/>
<path d="M188.567 37V32.616H192.791V37H188.567Z" fill="#122E78"/>
<path d="M201.232 37.288C199.803 37.288 198.651 37.0213 197.776 36.488C196.923 35.9333 196.293 35.1547 195.888 34.152C195.504 33.128 195.312 31.9227 195.312 30.536V24.968C195.312 23.5387 195.504 22.3227 195.888 21.32C196.293 20.3173 196.933 19.5493 197.808 19.016C198.683 18.4827 199.824 18.216 201.232 18.216C202.555 18.216 203.632 18.4293 204.464 18.856C205.317 19.2613 205.936 19.8907 206.32 20.744C206.704 21.576 206.896 22.632 206.896 23.912V25.448H202.8V23.816C202.8 23.176 202.747 22.6747 202.64 22.312C202.555 21.928 202.395 21.6613 202.16 21.512C201.925 21.3413 201.616 21.256 201.232 21.256C200.848 21.256 200.539 21.3627 200.304 21.576C200.069 21.768 199.899 22.088 199.792 22.536C199.707 22.984 199.664 23.6027 199.664 24.392V31.176C199.664 32.3707 199.792 33.1813 200.048 33.608C200.304 34.0133 200.709 34.216 201.264 34.216C201.691 34.216 202.011 34.12 202.224 33.928C202.459 33.736 202.608 33.4587 202.672 33.096C202.757 32.712 202.8 32.2533 202.8 31.72V29.736H206.896V31.496C206.896 32.7333 206.693 33.7893 206.288 34.664C205.904 35.5387 205.285 36.2 204.432 36.648C203.6 37.0747 202.533 37.288 201.232 37.288Z" fill="#122E78"/>
<path d="M209.182 37V34.152L214.526 21.704H209.63V18.504H219.134V21.032L213.694 33.768H219.102V37H209.182Z" fill="#122E78"/>
<line y1="2" x2="234" y2="2" stroke="#122E78" stroke-width="4"/>
<line x1="232" y1="8.74228e-08" x2="232" y2="11" stroke="#122E78" stroke-width="4"/>
<line x1="2" y1="8.74228e-08" x2="2" y2="11" stroke="#122E78" stroke-width="4"/>
<line x1="234" y1="46" x2="1.74846e-07" y2="46" stroke="#122E78" stroke-width="4"/>
<line x1="2" y1="48" x2="2" y2="37" stroke="#122E78" stroke-width="4"/>
<line x1="232" y1="48" x2="232" y2="37" stroke="#122E78" stroke-width="4"/>
</svg>
