<svg width="16" height="16" viewBox="0 0 16 16" fill="none" xmlns="http://www.w3.org/2000/svg">
<g clip-path="url(#clip0_7_6132)">
<path d="M8.06393 4.21564C9.11501 4.21564 10.139 4.54917 10.9884 5.16821C11.8378 5.78725 12.4689 6.65987 12.7908 7.66044C13.1127 8.66101 13.1088 9.73792 12.7796 10.7361C12.4505 11.7343 11.8131 12.6023 10.9591 13.2152C10.1052 13.828 9.07887 14.1541 8.02782 14.1465C6.97678 14.1388 5.95526 13.7979 5.11035 13.1726L8.06393 9.18112V4.21564Z" fill="#122E78"/>
<path d="M9.10068 0.601397V1.64783C9.10072 1.66796 9.09678 1.6879 9.0891 1.70651C9.08142 1.72512 9.07013 1.74203 9.0559 1.75626C9.04166 1.7705 9.02475 1.78178 9.00615 1.78947C8.98754 1.79715 8.96759 1.80108 8.94746 1.80104H8.8301V2.30959C8.57578 2.28067 8.31999 2.26652 8.06403 2.26721C7.8376 2.26661 7.61129 2.27749 7.38597 2.29981V1.80104H7.27187C7.25174 1.80108 7.23179 1.79715 7.21318 1.78947C7.19457 1.78178 7.17767 1.7705 7.16343 1.75626C7.1492 1.74203 7.13791 1.72512 7.13023 1.70651C7.12254 1.6879 7.11861 1.66796 7.11865 1.64783V0.601397C7.11861 0.581264 7.12254 0.561321 7.13023 0.542713C7.13791 0.524105 7.1492 0.507197 7.16343 0.492961C7.17767 0.478726 7.19457 0.467441 7.21318 0.459757C7.23179 0.452072 7.25174 0.448139 7.27187 0.448182H8.94746C8.96759 0.448139 8.98754 0.452072 9.00615 0.459757C9.02475 0.467441 9.04166 0.478726 9.0559 0.492961C9.07013 0.507197 9.08142 0.524105 9.0891 0.542713C9.09678 0.561321 9.10072 0.581264 9.10068 0.601397V0.601397Z" fill="#122E78"/>
<path d="M4.09676 3.52554C3.78792 3.73827 3.4988 3.97829 3.23289 4.24272L3.04381 4.00475L2.99817 4.04387C2.96649 4.06907 2.92617 4.0808 2.88592 4.07653C2.84567 4.07226 2.80871 4.05233 2.78302 4.02105L2.43747 3.60052C2.42427 3.58515 2.41436 3.56724 2.40833 3.54789C2.40231 3.52854 2.4003 3.50817 2.40244 3.48802C2.40458 3.46787 2.41081 3.44837 2.42076 3.43072C2.43071 3.41306 2.44416 3.39763 2.46029 3.38537L3.4187 2.60951C3.45038 2.58431 3.4907 2.57258 3.53095 2.57685C3.5712 2.58112 3.60816 2.60105 3.63385 2.63233L3.9794 3.0496C3.99259 3.06528 4.00249 3.08347 4.0085 3.10306C4.01451 3.12266 4.01651 3.14326 4.01438 3.16365C4.01225 3.18404 4.00604 3.20378 3.99611 3.22171C3.98618 3.23964 3.97273 3.25539 3.95658 3.26801L3.9142 3.30061L4.09676 3.52554Z" fill="#122E78"/>
<path d="M13.7753 3.60052L13.433 4.02105C13.4073 4.05226 13.3703 4.07213 13.3301 4.0764C13.2898 4.08067 13.2496 4.06899 13.2178 4.04387L13.1722 4.00475L12.944 4.28836C12.6821 4.02598 12.3986 3.78608 12.0964 3.57118L12.2985 3.30061L12.2562 3.26801C12.2249 3.24161 12.205 3.20412 12.2008 3.1634C12.1965 3.12268 12.2082 3.0819 12.2334 3.0496L12.5789 2.63233C12.6046 2.60105 12.6416 2.58112 12.6818 2.57685C12.7221 2.57258 12.7624 2.58431 12.7941 2.60951L13.7557 3.38537C13.7713 3.39807 13.7843 3.41376 13.7937 3.43153C13.8032 3.4493 13.809 3.46878 13.8108 3.48882C13.8127 3.50887 13.8104 3.52908 13.8043 3.54827C13.7982 3.56745 13.7884 3.58522 13.7753 3.60052V3.60052Z" fill="#122E78"/>
<path d="M8.10831 8.79285C8.03144 8.79285 7.9563 8.81564 7.89239 8.85836C7.82848 8.90107 7.77868 8.96177 7.74928 9.0328C7.71987 9.10382 7.7122 9.18196 7.72722 9.25735C7.74224 9.33273 7.77928 9.40197 7.83366 9.4563C7.88803 9.51063 7.9573 9.54761 8.0327 9.56257C8.1081 9.57753 8.18624 9.56978 8.25724 9.54032C8.32824 9.51086 8.3889 9.46101 8.43156 9.39707C8.47422 9.33312 8.49696 9.25796 8.49689 9.1811C8.49663 9.07815 8.4556 8.9795 8.38277 8.90673C8.30995 8.83397 8.21126 8.79302 8.10831 8.79285V8.79285Z" fill="#122E78"/>
<path d="M8.06402 2.75555C6.79316 2.75555 5.55084 3.13241 4.49415 3.83846C3.43747 4.54451 2.61389 5.54805 2.12755 6.72218C1.64121 7.8963 1.51396 9.18827 1.7619 10.4347C2.00983 11.6812 2.62181 12.8261 3.52044 13.7247C4.41908 14.6234 5.564 15.2353 6.81045 15.4833C8.05689 15.7312 9.34886 15.604 10.523 15.1176C11.6971 14.6313 12.7006 13.8077 13.4067 12.751C14.1127 11.6943 14.4896 10.452 14.4896 9.18114C14.4896 8.33732 14.3234 7.50177 14.0005 6.72218C13.6776 5.94259 13.2043 5.23424 12.6076 4.63757C12.0109 4.04089 11.3026 3.56759 10.523 3.24467C9.74339 2.92176 8.90784 2.75555 8.06402 2.75555V2.75555ZM12.7945 11.9123C12.7928 11.9149 12.7899 11.9155 12.7883 11.9182C12.3094 12.7409 11.6251 13.4251 10.8023 13.9038C10.7991 13.906 10.7974 13.9096 10.7939 13.9116C10.7903 13.9135 10.789 13.9116 10.787 13.9135C9.95961 14.3944 9.01969 14.6477 8.06271 14.6477C7.10574 14.6477 6.16581 14.3944 5.33842 13.9135C5.33646 13.9135 5.33385 13.9135 5.33157 13.9116C5.32929 13.9096 5.32635 13.906 5.32309 13.9038C4.50079 13.4249 3.81693 12.7407 3.33847 11.9182C3.33847 11.9155 3.3339 11.9149 3.33227 11.9123C3.33064 11.9097 3.33227 11.9064 3.32934 11.9035C2.84925 11.0767 2.59638 10.1376 2.59638 9.18147C2.59638 8.22537 2.84925 7.28628 3.32934 6.45945C3.32934 6.45652 3.32934 6.45359 3.33227 6.45065C3.33521 6.44772 3.33781 6.44544 3.3401 6.44185C3.81924 5.6201 4.5034 4.93673 5.3257 4.45853C5.32896 4.45624 5.33059 4.45266 5.33418 4.4507C5.33776 4.44875 5.34005 4.4507 5.34298 4.44777C6.16987 3.96787 7.10894 3.71511 8.06499 3.71511C9.02105 3.71511 9.96012 3.96787 10.787 4.44777C10.7899 4.44777 10.7929 4.44777 10.7958 4.4507C10.7987 4.45364 10.801 4.45624 10.8043 4.45853C11.6255 4.9369 12.3088 5.62001 12.7873 6.4412C12.7896 6.44478 12.7932 6.44641 12.7951 6.45C12.7971 6.45359 12.7951 6.45587 12.798 6.4588C13.2781 7.28563 13.531 8.22472 13.531 9.18082C13.531 10.1369 13.2781 11.076 12.798 11.9028C12.7958 11.9067 12.7961 11.9097 12.7945 11.9123V11.9123Z" fill="#122E78"/>
</g>
<defs>
<clipPath id="clip0_7_6132">
<rect width="15.6475" height="15.6475" fill="white" transform="translate(0.240234 0.203674)"/>
</clipPath>
</defs>
</svg>
